<?xml version="1.0" encoding="UTF-8" standalone="no"?>
<!-- Created with Inkscape (http://www.inkscape.org/) -->

<svg
   xmlns:dc="http://purl.org/dc/elements/1.1/"
   xmlns:cc="http://creativecommons.org/ns#"
   xmlns:rdf="http://www.w3.org/1999/02/22-rdf-syntax-ns#"
   xmlns:svg="http://www.w3.org/2000/svg"
   xmlns="http://www.w3.org/2000/svg"
   xmlns:sodipodi="http://sodipodi.sourceforge.net/DTD/sodipodi-0.dtd"
   xmlns:inkscape="http://www.inkscape.org/namespaces/inkscape"
   width="365"
   height="90.553001"
   viewBox="0 0 96.572914 23.958816"
   version="1.1"
   id="svg5314"
   inkscape:version="0.92.4 (5da689c313, 2019-01-14)"
   sodipodi:docname="logo.svg">
  <defs
     id="defs5308" />
  <sodipodi:namedview
     id="base"
     pagecolor="#ffffff"
     bordercolor="#666666"
     borderopacity="1.0"
     inkscape:pageopacity="0.0"
     inkscape:pageshadow="2"
     inkscape:zoom="0.7"
     inkscape:cx="591.92965"
     inkscape:cy="254.63621"
     inkscape:document-units="px"
     inkscape:current-layer="layer1"
     showgrid="false"
     units="px"
     inkscape:window-width="1366"
     inkscape:window-height="742"
     inkscape:window-x="1366"
     inkscape:window-y="0"
     inkscape:window-maximized="1" />
  <metadata
     id="metadata5311">
    <rdf:RDF>
      <cc:Work
         rdf:about="">
        <dc:format>image/svg+xml</dc:format>
        <dc:type
           rdf:resource="http://purl.org/dc/dcmitype/StillImage" />
        <dc:title></dc:title>
      </cc:Work>
    </rdf:RDF>
  </metadata>
  <g
     inkscape:label="Layer 1"
     inkscape:groupmode="layer"
     id="layer1"
     transform="translate(0,-273.04118)">
    <g
       id="g5446"
       transform="matrix(1.0000048,0,0,1.0000048,-76.842922,25.269571)">
      <path
         inkscape:connector-curvature="0"
         id="path304"
         style="fill:#1e1e69;fill-opacity:1;fill-rule:evenodd;stroke:none;stroke-width:1.09390986"
         d="m 98.379303,249.71068 0.0078,6.66334 -0.01925,0.0181 c -0.564021,0.52924 -1.37089,1.06262 -2.349172,1.5749 l -0.0084,-7.23151 c -0.83006,0.10042 -1.731114,0.12624 -2.67319,0.0632 -2.284412,-0.15249 -4.328819,-0.79221 -5.69905,-1.67598 -1.370015,0.88377 -3.414642,1.52349 -5.699054,1.67598 -0.942076,0.063 -1.84313,0.0372 -2.672969,-0.0632 l -0.01082,9.2232 c 0.05087,0.46195 0.120001,0.90017 0.205543,1.31564 -0.0734,-0.0161 -0.144725,-0.0332 -0.213857,-0.0509 -0.454629,-0.11748 -0.799101,-0.26789 -1.024559,-0.44587 l 0.01334,-11.06687 c 0.99841,0.12087 1.274734,0.20554 3.21555,0.0759 1.940812,-0.12963 4.333414,-0.95291 5.981825,-2.01619 1.648085,1.06328 5.789958,1.88656 7.730771,2.01619 1.940486,0.12962 2.217027,0.045 3.215549,-0.0759 z m 0.0105,9.0392 0.0024,2.05623 c -0.402713,3.65179 -1.740453,6.05774 -3.628214,7.72945 l -0.49434,-3.55794 c 0.886289,-1.24717 1.504018,-2.85215 1.74457,-4.95979 0.884972,-0.40617 1.68692,-0.83224 2.375534,-1.26795 z m -18.319492,4.53065 c 1.416834,3.39363 4.310882,4.81714 7.567671,5.75736 1.642176,-0.47378 3.19203,-1.07105 4.506799,-1.9814 l 2.280037,1.7671 c -1.71755,1.39692 -3.84411,2.24908 -6.117366,2.90553 -4.435475,-1.28031 -8.311198,-3.30678 -9.682742,-8.67219 0.422687,0.10086 0.906084,0.17623 1.445601,0.2236" />
      <path
         inkscape:connector-curvature="0"
         id="path306"
         style="fill:#d4432d;fill-opacity:1;fill-rule:evenodd;stroke:none;stroke-width:1.09390986"
         d="m 89.675497,251.23713 c 0.158836,0.037 0.315046,0.0794 0.468852,0.12591 -2.271285,0.76376 -4.807518,1.36563 -7.226808,1.67171 1.750804,-1.62862 4.254653,-2.38363 6.757956,-1.79762 z m 1.614942,0.58021 c 0.598805,0.2971 1.146416,0.6698 1.632658,1.10364 -3.072025,1.4164 -7.283908,2.58579 -11.090496,2.96592 -0.288684,0.0289 -0.56905,0.0521 -0.841653,0.071 0.26396,-0.73674 0.635669,-1.41114 1.093691,-2.00808 3.067981,-0.31844 6.371369,-1.11196 9.2058,-2.13247 z m 2.254,1.72837 c 0.467648,0.52869 0.857735,1.12192 1.15845,1.75912 -3.109767,1.56539 -7.685701,2.89317 -11.789941,3.30273 -0.858393,0.0857 -1.646335,0.12624 -2.356719,0.12526 -0.0223,-0.63469 0.03752,-1.28251 0.187057,-1.93054 0.302903,-0.0204 0.615433,-0.0465 0.937701,-0.0788 4.073831,-0.40682 8.582817,-1.6611 11.863452,-3.17781 z m 1.472621,2.53525 c 0.178635,0.52376 0.299515,1.07017 0.357162,1.62982 -2.860794,1.55171 -7.352057,2.89897 -11.356535,3.29901 -1.133947,0.11322 -2.13422,0.14079 -2.982983,0.0933 -0.186294,-0.49051 -0.321501,-1.00246 -0.400917,-1.52841 0.654596,-0.0117 1.364651,-0.0543 2.127218,-0.1305 4.238789,-0.42324 8.948729,-1.76372 12.256055,-3.36323" />
      <path
         inkscape:connector-curvature="0"
         id="path308"
         style="fill:#fefefe;fill-opacity:1;fill-rule:evenodd;stroke:none;stroke-width:1.09390986"
         d="m 98.824635,254.17274 c 1.867625,0.52223 2.261655,1.63069 0.714977,3.08133 -2.569047,2.40933 -9.518985,4.84843 -15.522801,5.44844 -5.960713,0.59541 -8.747233,-0.8468 -6.271822,-3.22573 -1.22693,1.84346 1.391126,2.89154 6.42344,2.38921 5.625869,-0.56194 12.138242,-2.84788 14.545502,-5.10615 1.198706,-1.12476 1.153199,-2.03052 0.110704,-2.5871" />
      <path
         inkscape:connector-curvature="0"
         id="path310"
         style="fill:#d4432d;fill-opacity:1;fill-rule:nonzero;stroke:none;stroke-width:1.09390986"
         d="m 82.912619,263.26817 c 0.454847,0.65984 1.031011,1.23819 1.705406,1.69829 0.649017,0.44249 1.389264,0.77493 2.200729,0.96505 0.75567,0.17667 1.511344,0.2155 2.240327,0.13236 0.756874,-0.0865 1.484652,-0.30389 2.153909,-0.63381 l 0.130174,-0.0642 2.36777,1.57118 -0.310671,-3.24344 0.06301,-0.0794 c 0.295136,-0.37237 0.551878,-0.77985 0.763109,-1.21763 0.204563,-0.42488 0.366791,-0.87939 0.479354,-1.3594 0.02482,-0.10699 0.04616,-0.20752 0.06323,-0.30017 0.01827,-0.098 0.0348,-0.19942 0.04901,-0.30356 l 0.499919,0.0691 c -0.01432,0.10513 -0.03196,0.21364 -0.05273,0.32522 -0.02142,0.11508 -0.04376,0.22327 -0.06728,0.32402 -0.120656,0.51545 -0.295573,1.00508 -0.516981,1.46431 -0.212435,0.44062 -0.467865,0.85237 -0.759391,1.23163 l 0.392604,4.09527 -3.009674,-1.99693 c -0.685009,0.3203 -1.42296,0.5324 -2.188039,0.61981 -0.785429,0.0897 -1.599078,0.0481 -2.412402,-0.14232 -0.873158,-0.20434 -1.670726,-0.56304 -2.370609,-1.03998 -0.72559,-0.49489 -1.345731,-1.11787 -1.836021,-1.82891 z" />
      <path
         inkscape:connector-curvature="0"
         id="path312"
         style="fill:#3c3c77;fill-opacity:1;fill-rule:evenodd;stroke:none;stroke-width:1.09390986"
         d="m 98.824635,254.17274 c 1.867625,0.52223 2.261655,1.63069 0.714977,3.08133 -2.569047,2.40933 -9.518985,4.84843 -15.522801,5.44844 -5.960713,0.59541 -8.747233,-0.8468 -6.271822,-3.22573 -1.22693,1.84346 1.391126,2.89154 6.42344,2.38921 5.625869,-0.56194 12.138242,-2.84788 14.545502,-5.10615 1.198706,-1.12476 1.153199,-2.03052 0.110704,-2.5871" />
      <path
         inkscape:connector-curvature="0"
         id="path316"
         style="fill:#1e1e69;fill-opacity:1;fill-rule:nonzero;stroke:none;stroke-width:1.09390986"
         d="m 112.43112,253.51476 c -0.87534,-1.39474 -2.374,-1.7507 -3.87299,-1.7507 -1.86949,0 -4.02121,0.83094 -4.00633,2.98233 0,2.22578 1.95887,2.74517 4.02121,3.02707 1.45435,0.19286 2.65624,0.5789 2.65624,1.70639 0,1.3058 -1.37986,1.72126 -2.62648,1.72126 -1.20188,0 -2.4927,-0.445 -3.23481,-1.70639 l -1.24651,0.83105 c 0.94985,1.75102 2.47815,2.35945 4.46644,2.35945 2.1666,0 4.28845,-0.87567 4.30333,-3.20537 0,-2.3297 -2.03281,-2.92315 -4.16965,-3.21993 -1.36531,-0.19285 -2.52256,-0.47475 -2.52256,-1.48378 0,-0.99414 1.00902,-1.57271 2.40376,-1.57271 1.08319,0.0146 2.07733,0.445 2.56718,1.15725 z" />
      <path
         inkscape:connector-curvature="0"
         id="path318"
         style="fill:#1e1e69;fill-opacity:1;fill-rule:nonzero;stroke:none;stroke-width:1.09390986"
         d="m 117.12017,262.44762 h 1.67663 v -8.90311 h 3.39791 v -1.49866 c -2.98233,0 -5.50489,0 -8.48732,0 v 1.49866 h 3.41278 z" />
      <path
         inkscape:connector-curvature="0"
         id="path320"
         style="fill:#1e1e69;fill-opacity:1;fill-rule:nonzero;stroke:none;stroke-width:1.09390986"
         d="m 131.00889,262.44762 h 1.76568 l -4.65908,-10.40177 h -1.81031 l -4.65929,10.40177 h 1.76557 l 0.97927,-2.18103 h 5.62401 z m -1.60247,-3.69457 h -4.39238 l 2.19635,-4.95114 z" />
      <path
         inkscape:connector-curvature="0"
         id="path322"
         style="fill:#1e1e69;fill-opacity:1;fill-rule:nonzero;stroke:none;stroke-width:1.09390986"
         d="m 142.99836,262.15096 -3.10124,-3.45752 c 2.04758,-0.29667 2.81934,-1.7507 2.81934,-3.24225 0,-1.75813 -1.26139,-3.40534 -3.66526,-3.40534 -1.61734,0 -3.21981,-0.0149 -4.83727,-0.0149 v 10.41664 h 1.66209 v -3.59076 h 2.19603 l 3.16063,3.59076 h 1.94366 z m -3.94716,-8.59157 c 1.36531,0 1.97374,0.98178 1.97374,1.92156 0,0.9843 -0.60843,1.86238 -1.98861,1.86238 h -3.16031 v -3.78394 z" />
      <path
         inkscape:connector-curvature="0"
         id="path324"
         style="fill:#1e1e69;fill-opacity:1;fill-rule:nonzero;stroke:none;stroke-width:1.09390986"
         d="m 147.09396,262.44762 h 1.67663 v -8.90311 h 3.39791 v -1.49866 c -2.98244,0 -5.505,0 -8.48732,0 v 1.49866 h 3.41278 z" />
      <path
         inkscape:connector-curvature="0"
         id="path326"
         style="fill:#1e1e69;fill-opacity:1;fill-rule:nonzero;stroke:none;stroke-width:1.09390986"
         d="m 160.75995,252.07561 v 6.06901 c 0,1.97341 -1.21675,3.05649 -2.87851,2.96756 -1.54329,-0.0593 -2.64124,-1.08319 -2.64124,-2.96756 v -6.06901 h -1.64721 v 6.06901 c 0,2.95268 1.97374,4.43668 4.28845,4.49597 2.50768,0.0889 4.52572,-1.43948 4.52572,-4.49597 v -6.06901 z" />
      <path
         inkscape:connector-curvature="0"
         id="path328"
         style="fill:#1e1e69;fill-opacity:1;fill-rule:nonzero;stroke:none;stroke-width:1.09390986"
         d="m 166.54707,253.57427 h 3.14554 c 2.73029,0 2.74516,4.15489 0,4.15489 h -3.14554 z m 3.14554,5.68329 c 4.97094,-0.0299 4.95606,-7.21171 0,-7.21171 -1.58771,0 -3.21993,0.0149 -4.80763,0.0149 v 10.38689 h 1.66209 v -3.19006 z" />
      <path
         inkscape:connector-curvature="0"
         id="path330"
         style="fill:#1e1e69;fill-opacity:1;fill-rule:nonzero;stroke:none;stroke-width:1.09390986"
         d="m 110.29986,265.27746 c 0.8655,0 0.8655,1.33315 0,1.33315 h -0.93956 v -1.33315 z m 0,1.51507 c 1.12902,0 1.12902,-1.70082 0,-1.70082 -0.3786,0 -0.76125,0 -1.13986,0 v 2.59946 h 0.2003 v -0.89864 z" />
      <path
         inkscape:connector-curvature="0"
         id="path332"
         style="fill:#1e1e69;fill-opacity:1;fill-rule:nonzero;stroke:none;stroke-width:1.09390986"
         d="m 113.67019,266.69582 c 0.56807,0 0.8468,-0.37116 0.84308,-0.79439 -0.003,-0.40497 -0.28956,-0.80972 -0.85423,-0.80972 -0.38233,0 -0.76126,0 -1.14358,0 v 2.59946 h 0.2003 v -0.98419 h 0.70951 l 0.89864,0.98419 h 0.26353 z m -0.95443,-1.41836 h 0.94328 c 0.43067,0 0.63873,0.3157 0.63501,0.62025 -0.003,0.36372 -0.20434,0.62013 -0.65733,0.62013 h -0.92096 z" />
      <path
         inkscape:connector-curvature="0"
         id="path334"
         style="fill:#1e1e69;fill-opacity:1;fill-rule:nonzero;stroke:none;stroke-width:1.09390986"
         d="m 117.12575,265.0508 c -0.87623,0 -1.31073,0.63885 -1.31073,1.33676 0,0.68719 0.43823,1.34824 1.31073,1.34824 0.87294,0 1.30733,-0.65733 1.31105,-1.3408 0.003,-0.70163 -0.43439,-1.3442 -1.31105,-1.3442 z m 0,0.18575 c 0.74637,0 1.11786,0.55319 1.11786,1.15473 0,0.58699 -0.37521,1.15889 -1.11786,1.15889 -0.73894,0 -1.11032,-0.5719 -1.11415,-1.15889 -0.003,-0.6127 0.36777,-1.15473 1.11415,-1.15473" />
      <path
         inkscape:connector-curvature="0"
         id="path336"
         style="fill:#1e1e69;fill-opacity:1;fill-rule:nonzero;stroke:none;stroke-width:1.09390986"
         d="m 120.07252,265.29234 h 1.54854 v -0.20063 h -1.74883 v 2.59946 h 0.20029 v -1.17333 h 1.4968 v -0.18946 h -1.4968 z" />
      <path
         inkscape:connector-curvature="0"
         id="path338"
         style="fill:#1e1e69;fill-opacity:1;fill-rule:nonzero;stroke:none;stroke-width:1.09390986"
         d="m 123.24967,265.28118 h 1.59689 v -0.18947 h -1.79346 v 2.59946 h 1.8381 v -0.19318 h -1.64153 v -1.02478 h 1.52284 v -0.18202 h -1.52284 z" />
      <path
         inkscape:connector-curvature="0"
         id="path340"
         style="fill:#1e1e69;fill-opacity:1;fill-rule:nonzero;stroke:none;stroke-width:1.09390986"
         d="m 128.0981,265.49646 c -0.25608,-0.38232 -0.57922,-0.44194 -0.95072,-0.44194 -0.42695,0 -0.99874,0.17087 -0.98791,0.72034 0,0.47913 0.48658,0.57584 0.96188,0.6686 0.42695,0.0818 0.85806,0.16715 0.85434,0.55691 0,0.46043 -0.50888,0.5498 -0.82831,0.5498 -0.31931,0 -0.72778,-0.15599 -0.88737,-0.4717 l -0.17831,0.0891 c 0.20062,0.39752 0.66105,0.56457 1.06568,0.56457 0.4345,0 1.02489,-0.14101 1.02861,-0.728 0,-0.56063 -0.51972,-0.64968 -1.02117,-0.74638 -0.43811,-0.0816 -0.79472,-0.15971 -0.79472,-0.49029 0,-0.41579 0.48285,-0.52715 0.78728,-0.52715 0.29339,0.004 0.59782,0.0483 0.78729,0.35289 z" />
      <path
         inkscape:connector-curvature="0"
         id="path342"
         style="fill:#1e1e69;fill-opacity:1;fill-rule:nonzero;stroke:none;stroke-width:1.09390986"
         d="m 131.40521,265.49646 c -0.25619,-0.38232 -0.57923,-0.44194 -0.95072,-0.44194 -0.42706,0 -0.99885,0.17087 -0.98791,0.72034 0,0.47913 0.48646,0.57584 0.96188,0.6686 0.42695,0.0818 0.85795,0.16715 0.85423,0.55691 0,0.46043 -0.50888,0.5498 -0.8282,0.5498 -0.31942,0 -0.72778,-0.15599 -0.88749,-0.4717 l -0.1783,0.0891 c 0.20062,0.39752 0.66116,0.56457 1.06579,0.56457 0.4344,0 1.02478,-0.14101 1.0285,-0.728 0,-0.56063 -0.51972,-0.64968 -1.02106,-0.74638 -0.43822,-0.0816 -0.79472,-0.15971 -0.79472,-0.49029 0,-0.41579 0.48274,-0.52715 0.78728,-0.52715 0.29328,0.004 0.59782,0.0483 0.78729,0.35289 z" />
      <path
         inkscape:connector-curvature="0"
         id="path344"
         style="fill:#1e1e69;fill-opacity:1;fill-rule:nonzero;stroke:none;stroke-width:1.09390986"
         d="m 133.09672,267.69117 v -2.59946 h -0.19657 v 2.59946 z" />
      <path
         inkscape:connector-curvature="0"
         id="path346"
         style="fill:#1e1e69;fill-opacity:1;fill-rule:nonzero;stroke:none;stroke-width:1.09390986"
         d="m 135.84309,265.0508 c -0.87622,0 -1.31072,0.63885 -1.31072,1.33676 0,0.68719 0.43822,1.34824 1.31072,1.34824 0.87294,0 1.30734,-0.65733 1.31105,-1.3408 0.003,-0.70163 -0.43439,-1.3442 -1.31105,-1.3442 z m 0,0.18575 c 0.74638,0 1.11787,0.55319 1.11787,1.15473 0,0.58699 -0.37521,1.15889 -1.11787,1.15889 -0.73893,0 -1.11042,-0.5719 -1.11415,-1.15889 -0.003,-0.6127 0.36778,-1.15473 1.11415,-1.15473" />
      <path
         inkscape:connector-curvature="0"
         id="path348"
         style="fill:#1e1e69;fill-opacity:1;fill-rule:nonzero;stroke:none;stroke-width:1.09390986"
         d="m 138.58957,265.09171 v 2.59946 h 0.2003 v -2.14636 l 1.75288,2.14636 h 0.0779 v -2.59946 h -0.19668 v 2.15019 l -1.74916,-2.15019 z" />
      <path
         inkscape:connector-curvature="0"
         id="path350"
         style="fill:#1e1e69;fill-opacity:1;fill-rule:nonzero;stroke:none;stroke-width:1.09390986"
         d="m 144.50347,267.69117 -1.16622,-2.59946 h -0.21889 l -1.16622,2.59946 h 0.2155 l 0.28212,-0.63873 h 1.55226 l 0.28595,0.63873 z m -1.97549,-0.82448 0.69791,-1.58179 0.69835,1.58179 z" />
      <path
         inkscape:connector-curvature="0"
         id="path352"
         style="fill:#1e1e69;fill-opacity:1;fill-rule:nonzero;stroke:none;stroke-width:1.09390986"
         d="m 145.83498,265.09171 v 2.59946 h 1.66362 v -0.18946 h -1.46333 v -2.41 z" />
      <path
         inkscape:connector-curvature="0"
         id="path354"
         style="fill:#1e1e69;fill-opacity:1;fill-rule:nonzero;stroke:none;stroke-width:1.09390986"
         d="m 149.86975,265.28118 h 1.597 v -0.18947 h -1.79357 v 2.59946 h 1.8382 v -0.19318 h -1.64163 v -1.02478 h 1.52284 v -0.18202 h -1.52284 z" />
      <path
         inkscape:connector-curvature="0"
         id="path356"
         style="fill:#1e1e69;fill-opacity:1;fill-rule:nonzero;stroke:none;stroke-width:1.09390986"
         d="m 152.95053,265.09171 v 2.59946 h 0.2003 v -2.14636 l 1.75288,2.14636 h 0.0779 v -2.59946 h -0.19669 v 2.15019 l -1.74916,-2.15019 z" />
      <path
         inkscape:connector-curvature="0"
         id="path358"
         style="fill:#1e1e69;fill-opacity:1;fill-rule:nonzero;stroke:none;stroke-width:1.09390986"
         d="m 158.71216,265.44461 c -0.26353,-0.26013 -0.60898,-0.39009 -0.95072,-0.39009 -0.79101,0 -1.3442,0.5312 -1.34048,1.3442 0,0.70951 0.45671,1.32593 1.34048,1.32593 0.38637,0 0.70918,-0.14845 0.98047,-0.41985 v -0.9727 h -1.09544 v 0.17459 h 0.90597 v 0.72778 c -0.22293,0.20434 -0.51249,0.30071 -0.791,0.30071 -0.75753,0 -1.14762,-0.52737 -1.14762,-1.14018 -0.003,-0.60154 0.38637,-1.15845 1.14762,-1.15845 0.29339,0 0.60898,0.11136 0.83574,0.3343 z" />
      <path
         inkscape:connector-curvature="0"
         id="path360"
         style="fill:#1e1e69;fill-opacity:1;fill-rule:nonzero;stroke:none;stroke-width:1.09390986"
         d="m 160.21453,265.09171 v 2.59946 h 1.66362 v -0.18946 h -1.46332 v -2.41 z" />
      <path
         inkscape:connector-curvature="0"
         id="path362"
         style="fill:#1e1e69;fill-opacity:1;fill-rule:nonzero;stroke:none;stroke-width:1.09390986"
         d="m 163.37276,267.69117 v -2.59946 h -0.19657 v 2.59946 z" />
      <path
         inkscape:connector-curvature="0"
         id="path364"
         style="fill:#1e1e69;fill-opacity:1;fill-rule:nonzero;stroke:none;stroke-width:1.09390986"
         d="m 166.78773,265.49646 c -0.2562,-0.38232 -0.57923,-0.44194 -0.95072,-0.44194 -0.42695,0 -0.99885,0.17087 -0.98791,0.72034 0,0.47913 0.48646,0.57584 0.96187,0.6686 0.42696,0.0818 0.85796,0.16715 0.85424,0.55691 0,0.46043 -0.50878,0.5498 -0.8282,0.5498 -0.31942,0 -0.72778,-0.15599 -0.88749,-0.4717 l -0.17831,0.0891 c 0.20063,0.39752 0.66116,0.56457 1.0658,0.56457 0.43439,0 1.02477,-0.14101 1.02849,-0.728 0,-0.56063 -0.5196,-0.64968 -1.02105,-0.74638 -0.43811,-0.0816 -0.79473,-0.15971 -0.79473,-0.49029 0,-0.41579 0.48275,-0.52715 0.78729,-0.52715 0.29328,0.004 0.59782,0.0483 0.78729,0.35289 z" />
      <path
         inkscape:connector-curvature="0"
         id="path366"
         style="fill:#1e1e69;fill-opacity:1;fill-rule:nonzero;stroke:none;stroke-width:1.09390986"
         d="m 170.33976,267.69117 v -2.59946 h -0.20029 v 1.23667 h -1.65651 v -1.23667 h -0.2003 v 2.59946 h 0.2003 v -1.18076 h 1.65651 v 1.18076 z" />
    </g>
  </g>
</svg>
