<?xml version="1.0" encoding="UTF-8"?>
<!DOCTYPE svg PUBLIC "-//W3C//DTD SVG 1.1//EN" "http://www.w3.org/Graphics/SVG/1.1/DTD/svg11.dtd">
<!-- Creator: CorelDRAW 2018 (64 Bit Versão de avaliação) -->
<svg xmlns="http://www.w3.org/2000/svg" xml:space="preserve" width="5.177mm" height="5.1897mm" version="1.1" style="shape-rendering:geometricPrecision; text-rendering:geometricPrecision; image-rendering:optimizeQuality; fill-rule:evenodd; clip-rule:evenodd"
viewBox="0 0 1047.09 1049.66"
 xmlns:xlink="http://www.w3.org/1999/xlink">
 <defs>
  <style type="text/css">
   <![CDATA[
    .fil0 {fill:#D4432D;fill-rule:nonzero}
   ]]>
  </style>
 </defs>
 <g id="Camada_x0020_1">
  <metadata id="CorelCorpID_0Corel-Layer"/>
  <path class="fil0" d="M19.13 513.45l54.16 202.38 73.38 -19.64 -54.16 -202.38 -73.38 19.64zm48.08 221.53c-1.5,0 -2.99,-0.4 -4.29,-1.17 -1.98,-1.13 -3.42,-3.01 -4.02,-5.22l-58.59 -219.01c-1.23,-4.57 1.5,-9.3 6.09,-10.54l90 -24.09c2.14,-0.59 4.55,-0.26 6.51,0.87 1.98,1.13 3.42,3.01 4.02,5.22l58.59 219.01c1.23,4.59 -1.5,9.3 -6.09,10.54l-90 24.09c-0.73,0.2 -1.46,0.3 -2.22,0.3z"/>
  <path class="fil0" d="M158.04 672.33l435.81 11.04c-34.81,-52.65 -64.24,-120.44 -83.67,-192.97 -19.46,-72.47 -27.85,-145.91 -24.05,-209.01l-371.85 227.4 43.77 163.55zm452.71 28.68c-0.04,0 -0.16,0 -0.24,0 -0.08,0 -0.16,0 -0.22,-0.02l-459.11 -11.63c-3.82,-0.08 -7.12,-2.69 -8.09,-6.37l-47.13 -175.96c-0.97,-3.68 0.59,-7.56 3.84,-9.57l391.71 -239.55c2.77,-1.7 6.31,-1.68 9.06,0.06 2.77,1.72 4.29,4.87 3.98,8.11 -6.37,64.68 1.52,142.75 22.23,219.85 20.49,76.53 52.3,147.49 89.68,200.01 1.78,1.6 2.89,3.88 2.89,6.45 0,4.75 -3.84,8.62 -8.62,8.62z"/>
  <path class="fil0" d="M598.85 122.18c-5.46,0 -10.86,0.69 -16.02,2.08 -75.64,20.29 -99.81,185.49 -52.79,360.71 43.32,161.64 135.53,288.26 209.9,288.26l0 0c5.5,0 10.94,-0.73 16.14,-2.1 75.56,-20.31 99.67,-185.51 52.67,-360.73 -43.2,-161.62 -135.41,-288.22 -209.9,-288.22zm141.1 668.24l0 0c-83.13,0 -180.52,-129.38 -226.53,-300.98 -51.15,-190.59 -22.61,-358.3 64.95,-381.8 6.63,-1.76 13.53,-2.65 20.49,-2.65 83.27,0 180.66,129.36 226.51,300.96 51.15,190.57 22.67,358.28 -64.8,381.78 -6.65,1.8 -13.57,2.69 -20.61,2.69z"/>
  <path class="fil0" d="M631.71 129.57c-44.17,60.07 -49.74,194.77 -13.03,331.74 36.71,136.97 108.84,250.82 177.04,280.67 44.23,-59.83 49.78,-194.47 13.03,-331.6 -36.75,-137.11 -108.86,-251 -177.04,-280.82zm166.78 631.41c-0.99,0 -2,-0.18 -2.97,-0.55 -75.99,-28.01 -153.74,-146.43 -193.46,-294.67 -39.72,-148.21 -31.57,-289.71 20.25,-352.07 2.33,-2.83 6.17,-3.82 9.59,-2.59 75.95,27.97 153.7,146.46 193.46,294.85 39.76,148.36 31.63,289.8 -20.25,351.93 -1.68,1.98 -4.11,3.09 -6.61,3.09z"/>
  <path class="fil0" d="M610.76 428.97c2.47,11.25 5.06,21.86 7.91,32.3 2.63,9.91 5.68,20.43 9.28,32 7.42,-1.01 15.33,-2.61 23.58,-4.75 23.32,-6.31 44.07,-16.26 58.33,-28.01 12.26,-10.09 18.1,-20.29 16.04,-27.89 -2.85,-10.58 -21.66,-17.7 -46.78,-17.7 -14.28,0 -30.08,2.22 -45.69,6.43 -7.67,2.02 -15.25,4.55 -22.67,7.63zm11.1 82.26c-3.72,0 -7.06,-2.39 -8.19,-6.01 -4.61,-14.54 -8.43,-27.47 -11.61,-39.48 -3.5,-12.8 -6.65,-25.93 -9.59,-40.13 -0.83,-3.92 1.19,-7.89 4.83,-9.55 10.29,-4.71 20.97,-8.54 31.71,-11.35 16.99,-4.57 34.34,-7 50.1,-7 34.57,0 58.25,11.37 63.41,30.4 3.94,14.64 -3.78,30.84 -21.72,45.65 -16.12,13.29 -39.14,24.43 -64.86,31.37 -11.83,3.07 -23,5.1 -33.29,6.05 -0.26,0.04 -0.53,0.04 -0.79,0.04z"/>
  <path class="fil0" d="M219.87 691.48l155.37 281.77 65.55 -27.99 -138.93 -249.65 -82 -4.13zm151.59 301.34c-3.05,0 -5.99,-1.64 -7.54,-4.47l-166.58 -302.09c-1.5,-2.73 -1.42,-6.07 0.24,-8.7 1.66,-2.65 4.67,-4.07 7.73,-4.05l102.18 5.14c2.97,0.14 5.64,1.82 7.1,4.41l145.89 262.17c1.17,2.12 1.4,4.67 0.63,6.98 -0.79,2.29 -2.53,4.17 -4.77,5.12l-81.51 34.79c-1.09,0.47 -2.22,0.71 -3.36,0.71z"/>
  <path class="fil0" d="M201.21 581.78c-3.8,0 -7.28,-2.53 -8.31,-6.37 -1.23,-4.59 1.5,-9.3 6.09,-10.54l269.49 -72.29c4.51,-1.19 9.3,1.48 10.54,6.09 1.23,4.59 -1.5,9.3 -6.09,10.54l-269.49 72.29c-0.75,0.2 -1.5,0.28 -2.22,0.28z"/>
  <path class="fil0" d="M927.88 268.7c-3.8,0 -7.26,-2.53 -8.29,-6.37 -1.23,-4.59 1.5,-9.3 6.09,-10.54l89.05 -23.83c4.61,-1.21 9.28,1.48 10.52,6.09 1.23,4.59 -1.5,9.3 -6.09,10.54l-89.05 23.83c-0.75,0.18 -1.48,0.28 -2.22,0.28z"/>
  <path class="fil0" d="M1038.49 476.2l-92.07 0c-4.75,0 -8.62,-3.86 -8.62,-8.64 0,-4.73 3.86,-8.6 8.62,-8.6l92.07 0c4.75,0 8.6,3.86 8.6,8.6 0,4.77 -3.84,8.64 -8.6,8.64z"/>
  <path class="fil0" d="M1024.82 610.46c-0.75,0 -1.5,-0.1 -2.22,-0.3l-88.93 -23.83c-4.59,-1.21 -7.32,-5.93 -6.09,-10.52 1.23,-4.59 5.99,-7.28 10.54,-6.11l88.93 23.83c4.57,1.23 7.3,5.95 6.09,10.54 -1.03,3.86 -4.51,6.39 -8.31,6.39z"/>
  <path class="fil0" d="M811.38 82.32c-2.2,0 -4.41,-0.83 -6.09,-2.51 -3.36,-3.38 -3.36,-8.82 0,-12.2l65.09 -65.09c3.36,-3.36 8.82,-3.36 12.18,0 3.38,3.36 3.38,8.82 0,12.18l-65.09 65.11c-1.68,1.68 -3.88,2.51 -6.09,2.51z"/>
  <path class="fil0" d="M881.89 167.87c-2.97,0 -5.85,-1.56 -7.46,-4.31 -2.37,-4.13 -0.95,-9.38 3.18,-11.75l79.83 -46.03c4.13,-2.37 9.38,-0.93 11.75,3.18 2.37,4.11 0.95,9.36 -3.18,11.75l-79.83 46.01c-1.33,0.79 -2.83,1.15 -4.29,1.15z"/>
  <path class="fil0" d="M787.01 1004.19l-737.25 0c-4.77,0 -8.64,-3.86 -8.64,-8.6 0,-4.75 3.86,-8.62 8.64,-8.62l737.25 0c4.75,0 8.62,3.86 8.62,8.62 0,4.73 -3.86,8.6 -8.62,8.6z"/>
  <path class="fil0" d="M948.23 1049.66l-737.13 0c-4.75,0 -8.62,-3.86 -8.62,-8.6 0,-4.77 3.86,-8.64 8.62,-8.64l737.13 0c4.75,0 8.6,3.86 8.6,8.64 0,4.73 -3.84,8.6 -8.6,8.6z"/>
 </g>
</svg>
