<?xml version="1.0" encoding="UTF-8"?>
<!DOCTYPE svg PUBLIC "-//W3C//DTD SVG 1.1//EN" "http://www.w3.org/Graphics/SVG/1.1/DTD/svg11.dtd">
<!-- Creator: CorelDRAW 2018 (64 Bit Versão de avaliação) -->
<svg xmlns="http://www.w3.org/2000/svg" xml:space="preserve" width="5.4234mm" height="7.2283mm" version="1.1" style="shape-rendering:geometricPrecision; text-rendering:geometricPrecision; image-rendering:optimizeQuality; fill-rule:evenodd; clip-rule:evenodd"
viewBox="0 0 357.9 477.1"
 xmlns:xlink="http://www.w3.org/1999/xlink">
 <defs>
  <style type="text/css">
   <![CDATA[
    .fil1 {fill:#0B0B42}
    .fil0 {fill:#FEFEFE;fill-rule:nonzero}
   ]]>
  </style>
 </defs>
 <g id="Camada_x0020_1">
  <metadata id="CorelCorpID_0Corel-Layer"/>
  <polygon class="fil0" points="357.9,0 357.9,477.1 337.6,477.1 337.6,0 "/>
  <polygon class="fil1" points="5,12.3 9.8,12.3 9.8,17.3 14.7,17.3 14.7,22 9.8,22 9.8,27 5,27 5,22 -0,22 -0,17.3 5,17.3 "/>
  <polygon class="fil1" points="39.9,12.3 44.6,12.3 44.6,17.3 49.6,17.3 49.6,22 44.6,22 44.6,27 39.9,27 39.9,22 34.9,22 34.9,17.3 39.9,17.3 "/>
  <polygon class="fil1" points="74.8,12.3 79.5,12.3 79.5,17.3 84.5,17.3 84.5,22 79.5,22 79.5,27 74.8,27 74.8,22 69.8,22 69.8,17.3 74.8,17.3 "/>
  <polygon class="fil1" points="109.7,12.3 114.4,12.3 114.4,17.3 119.4,17.3 119.4,22 114.4,22 114.4,27 109.7,27 109.7,22 104.7,22 104.7,17.3 109.7,17.3 "/>
  <polygon class="fil1" points="144.6,12.3 149.3,12.3 149.3,17.3 154.3,17.3 154.3,22 149.3,22 149.3,27 144.6,27 144.6,22 139.6,22 139.6,17.3 144.6,17.3 "/>
  <polygon class="fil1" points="179.4,12.3 184.2,12.3 184.2,17.3 189.2,17.3 189.2,22 184.2,22 184.2,27 179.4,27 179.4,22 174.5,22 174.5,17.3 179.4,17.3 "/>
  <polygon class="fil1" points="214.3,12.3 219.1,12.3 219.1,17.3 224.1,17.3 224.1,22 219.1,22 219.1,27 214.3,27 214.3,22 209.4,22 209.4,17.3 214.3,17.3 "/>
  <polygon class="fil1" points="249.2,12.3 254,12.3 254,17.3 259,17.3 259,22 254,22 254,27 249.2,27 249.2,22 244.3,22 244.3,17.3 249.2,17.3 "/>
  <polygon class="fil1" points="284.1,12.3 288.9,12.3 288.9,17.3 293.9,17.3 293.9,22 288.9,22 288.9,27 284.1,27 284.1,22 279.2,22 279.2,17.3 284.1,17.3 "/>
  <polygon class="fil1" points="5,48.7 9.8,48.7 9.8,53.8 14.7,53.8 14.7,58.5 9.8,58.5 9.8,63.5 5,63.5 5,58.5 -0,58.5 -0,53.8 5,53.8 "/>
  <polygon class="fil1" points="5,85.2 9.8,85.2 9.8,90.3 14.7,90.3 14.7,95 9.8,95 9.8,100 5,100 5,95 -0,95 -0,90.3 5,90.3 "/>
  <polygon class="fil1" points="5,121.7 9.8,121.7 9.8,126.7 14.7,126.7 14.7,131.4 9.8,131.4 9.8,136.5 5,136.5 5,131.4 -0,131.4 -0,126.7 5,126.7 "/>
  <polygon class="fil1" points="5,158.2 9.8,158.2 9.8,163.2 14.7,163.2 14.7,167.9 9.8,167.9 9.8,173 5,173 5,167.9 -0,167.9 -0,163.2 5,163.2 "/>
  <polygon class="fil1" points="5,194.7 9.8,194.7 9.8,199.7 14.7,199.7 14.7,204.4 9.8,204.4 9.8,209.4 5,209.4 5,204.4 -0,204.4 -0,199.7 5,199.7 "/>
  <polygon class="fil1" points="5,231.1 9.8,231.1 9.8,236.2 14.7,236.2 14.7,240.9 9.8,240.9 9.8,245.9 5,245.9 5,240.9 -0,240.9 -0,236.2 5,236.2 "/>
  <polygon class="fil1" points="5,267.6 9.8,267.6 9.8,272.7 14.7,272.7 14.7,277.4 9.8,277.4 9.8,282.4 5,282.4 5,277.4 -0,277.4 -0,272.7 5,272.7 "/>
  <polygon class="fil1" points="5,304.1 9.8,304.1 9.8,309.1 14.7,309.1 14.7,313.8 9.8,313.8 9.8,318.9 5,318.9 5,313.8 -0,313.8 -0,309.1 5,309.1 "/>
  <polygon class="fil1" points="5,340.6 9.8,340.6 9.8,345.6 14.7,345.6 14.7,350.3 9.8,350.3 9.8,355.4 5,355.4 5,350.3 -0,350.3 -0,345.6 5,345.6 "/>
  <polygon class="fil1" points="5,377.1 9.8,377.1 9.8,382.1 14.7,382.1 14.7,386.8 9.8,386.8 9.8,391.8 5,391.8 5,386.8 -0,386.8 -0,382.1 5,382.1 "/>
  <polygon class="fil1" points="5,413.5 9.8,413.5 9.8,418.6 14.7,418.6 14.7,423.3 9.8,423.3 9.8,428.3 5,428.3 5,423.3 -0,423.3 -0,418.6 5,418.6 "/>
  <polygon class="fil1" points="5,450 9.8,450 9.8,455.1 14.7,455.1 14.7,459.8 9.8,459.8 9.8,464.8 5,464.8 5,459.8 -0,459.8 -0,455.1 5,455.1 "/>
  <polygon class="fil1" points="39.9,48.7 44.6,48.7 44.6,53.8 49.6,53.8 49.6,58.5 44.6,58.5 44.6,63.5 39.9,63.5 39.9,58.5 34.9,58.5 34.9,53.8 39.9,53.8 "/>
  <polygon class="fil1" points="39.9,85.2 44.6,85.2 44.6,90.3 49.6,90.3 49.6,95 44.6,95 44.6,100 39.9,100 39.9,95 34.9,95 34.9,90.3 39.9,90.3 "/>
  <polygon class="fil1" points="39.9,121.7 44.6,121.7 44.6,126.7 49.6,126.7 49.6,131.4 44.6,131.4 44.6,136.5 39.9,136.5 39.9,131.4 34.9,131.4 34.9,126.7 39.9,126.7 "/>
  <polygon class="fil1" points="39.9,158.2 44.6,158.2 44.6,163.2 49.6,163.2 49.6,167.9 44.6,167.9 44.6,173 39.9,173 39.9,167.9 34.9,167.9 34.9,163.2 39.9,163.2 "/>
  <polygon class="fil1" points="39.9,194.7 44.6,194.7 44.6,199.7 49.6,199.7 49.6,204.4 44.6,204.4 44.6,209.4 39.9,209.4 39.9,204.4 34.9,204.4 34.9,199.7 39.9,199.7 "/>
  <polygon class="fil1" points="39.9,231.1 44.6,231.1 44.6,236.2 49.6,236.2 49.6,240.9 44.6,240.9 44.6,245.9 39.9,245.9 39.9,240.9 34.9,240.9 34.9,236.2 39.9,236.2 "/>
  <polygon class="fil1" points="39.9,267.6 44.6,267.6 44.6,272.7 49.6,272.7 49.6,277.4 44.6,277.4 44.6,282.4 39.9,282.4 39.9,277.4 34.9,277.4 34.9,272.7 39.9,272.7 "/>
  <polygon class="fil1" points="39.9,304.1 44.6,304.1 44.6,309.1 49.6,309.1 49.6,313.8 44.6,313.8 44.6,318.9 39.9,318.9 39.9,313.8 34.9,313.8 34.9,309.1 39.9,309.1 "/>
  <polygon class="fil1" points="39.9,340.6 44.6,340.6 44.6,345.6 49.6,345.6 49.6,350.3 44.6,350.3 44.6,355.4 39.9,355.4 39.9,350.3 34.9,350.3 34.9,345.6 39.9,345.6 "/>
  <polygon class="fil1" points="39.9,377.1 44.6,377.1 44.6,382.1 49.6,382.1 49.6,386.8 44.6,386.8 44.6,391.8 39.9,391.8 39.9,386.8 34.9,386.8 34.9,382.1 39.9,382.1 "/>
  <polygon class="fil1" points="39.9,413.5 44.6,413.5 44.6,418.6 49.6,418.6 49.6,423.3 44.6,423.3 44.6,428.3 39.9,428.3 39.9,423.3 34.9,423.3 34.9,418.6 39.9,418.6 "/>
  <polygon class="fil1" points="39.9,450 44.6,450 44.6,455.1 49.6,455.1 49.6,459.8 44.6,459.8 44.6,464.8 39.9,464.8 39.9,459.8 34.9,459.8 34.9,455.1 39.9,455.1 "/>
  <polygon class="fil1" points="74.8,48.7 79.5,48.7 79.5,53.8 84.5,53.8 84.5,58.5 79.5,58.5 79.5,63.5 74.8,63.5 74.8,58.5 69.8,58.5 69.8,53.8 74.8,53.8 "/>
  <polygon class="fil1" points="74.8,85.2 79.5,85.2 79.5,90.3 84.5,90.3 84.5,95 79.5,95 79.5,100 74.8,100 74.8,95 69.8,95 69.8,90.3 74.8,90.3 "/>
  <polygon class="fil1" points="74.8,121.7 79.5,121.7 79.5,126.7 84.5,126.7 84.5,131.4 79.5,131.4 79.5,136.5 74.8,136.5 74.8,131.4 69.8,131.4 69.8,126.7 74.8,126.7 "/>
  <polygon class="fil1" points="74.8,158.2 79.5,158.2 79.5,163.2 84.5,163.2 84.5,167.9 79.5,167.9 79.5,173 74.8,173 74.8,167.9 69.8,167.9 69.8,163.2 74.8,163.2 "/>
  <polygon class="fil1" points="74.8,194.7 79.5,194.7 79.5,199.7 84.5,199.7 84.5,204.4 79.5,204.4 79.5,209.4 74.8,209.4 74.8,204.4 69.8,204.4 69.8,199.7 74.8,199.7 "/>
  <polygon class="fil1" points="74.8,231.1 79.5,231.1 79.5,236.2 84.5,236.2 84.5,240.9 79.5,240.9 79.5,245.9 74.8,245.9 74.8,240.9 69.8,240.9 69.8,236.2 74.8,236.2 "/>
  <polygon class="fil1" points="74.8,267.6 79.5,267.6 79.5,272.7 84.5,272.7 84.5,277.4 79.5,277.4 79.5,282.4 74.8,282.4 74.8,277.4 69.8,277.4 69.8,272.7 74.8,272.7 "/>
  <polygon class="fil1" points="74.8,304.1 79.5,304.1 79.5,309.1 84.5,309.1 84.5,313.8 79.5,313.8 79.5,318.9 74.8,318.9 74.8,313.8 69.8,313.8 69.8,309.1 74.8,309.1 "/>
  <polygon class="fil1" points="74.8,340.6 79.5,340.6 79.5,345.6 84.5,345.6 84.5,350.3 79.5,350.3 79.5,355.4 74.8,355.4 74.8,350.3 69.8,350.3 69.8,345.6 74.8,345.6 "/>
  <polygon class="fil1" points="74.8,377.1 79.5,377.1 79.5,382.1 84.5,382.1 84.5,386.8 79.5,386.8 79.5,391.8 74.8,391.8 74.8,386.8 69.8,386.8 69.8,382.1 74.8,382.1 "/>
  <polygon class="fil1" points="74.8,413.5 79.5,413.5 79.5,418.6 84.5,418.6 84.5,423.3 79.5,423.3 79.5,428.3 74.8,428.3 74.8,423.3 69.8,423.3 69.8,418.6 74.8,418.6 "/>
  <polygon class="fil1" points="74.8,450 79.5,450 79.5,455.1 84.5,455.1 84.5,459.8 79.5,459.8 79.5,464.8 74.8,464.8 74.8,459.8 69.8,459.8 69.8,455.1 74.8,455.1 "/>
  <polygon class="fil1" points="109.7,48.7 114.4,48.7 114.4,53.8 119.4,53.8 119.4,58.5 114.4,58.5 114.4,63.5 109.7,63.5 109.7,58.5 104.7,58.5 104.7,53.8 109.7,53.8 "/>
  <polygon class="fil1" points="109.7,85.2 114.4,85.2 114.4,90.3 119.4,90.3 119.4,95 114.4,95 114.4,100 109.7,100 109.7,95 104.7,95 104.7,90.3 109.7,90.3 "/>
  <polygon class="fil1" points="109.7,121.7 114.4,121.7 114.4,126.7 119.4,126.7 119.4,131.4 114.4,131.4 114.4,136.5 109.7,136.5 109.7,131.4 104.7,131.4 104.7,126.7 109.7,126.7 "/>
  <polygon class="fil1" points="109.7,158.2 114.4,158.2 114.4,163.2 119.4,163.2 119.4,167.9 114.4,167.9 114.4,173 109.7,173 109.7,167.9 104.7,167.9 104.7,163.2 109.7,163.2 "/>
  <polygon class="fil1" points="109.7,194.7 114.4,194.7 114.4,199.7 119.4,199.7 119.4,204.4 114.4,204.4 114.4,209.4 109.7,209.4 109.7,204.4 104.7,204.4 104.7,199.7 109.7,199.7 "/>
  <polygon class="fil1" points="109.7,231.1 114.4,231.1 114.4,236.2 119.4,236.2 119.4,240.9 114.4,240.9 114.4,245.9 109.7,245.9 109.7,240.9 104.7,240.9 104.7,236.2 109.7,236.2 "/>
  <polygon class="fil1" points="109.7,267.6 114.4,267.6 114.4,272.7 119.4,272.7 119.4,277.4 114.4,277.4 114.4,282.4 109.7,282.4 109.7,277.4 104.7,277.4 104.7,272.7 109.7,272.7 "/>
  <polygon class="fil1" points="109.7,304.1 114.4,304.1 114.4,309.1 119.4,309.1 119.4,313.8 114.4,313.8 114.4,318.9 109.7,318.9 109.7,313.8 104.7,313.8 104.7,309.1 109.7,309.1 "/>
  <polygon class="fil1" points="109.7,340.6 114.4,340.6 114.4,345.6 119.4,345.6 119.4,350.3 114.4,350.3 114.4,355.4 109.7,355.4 109.7,350.3 104.7,350.3 104.7,345.6 109.7,345.6 "/>
  <polygon class="fil1" points="109.7,377.1 114.4,377.1 114.4,382.1 119.4,382.1 119.4,386.8 114.4,386.8 114.4,391.8 109.7,391.8 109.7,386.8 104.7,386.8 104.7,382.1 109.7,382.1 "/>
  <polygon class="fil1" points="109.7,413.5 114.4,413.5 114.4,418.6 119.4,418.6 119.4,423.3 114.4,423.3 114.4,428.3 109.7,428.3 109.7,423.3 104.7,423.3 104.7,418.6 109.7,418.6 "/>
  <polygon class="fil1" points="109.7,450 114.4,450 114.4,455.1 119.4,455.1 119.4,459.8 114.4,459.8 114.4,464.8 109.7,464.8 109.7,459.8 104.7,459.8 104.7,455.1 109.7,455.1 "/>
  <polygon class="fil1" points="144.6,48.7 149.3,48.7 149.3,53.8 154.3,53.8 154.3,58.5 149.3,58.5 149.3,63.5 144.6,63.5 144.6,58.5 139.6,58.5 139.6,53.8 144.6,53.8 "/>
  <polygon class="fil1" points="144.6,85.2 149.3,85.2 149.3,90.3 154.3,90.3 154.3,95 149.3,95 149.3,100 144.6,100 144.6,95 139.6,95 139.6,90.3 144.6,90.3 "/>
  <polygon class="fil1" points="144.6,121.7 149.3,121.7 149.3,126.7 154.3,126.7 154.3,131.4 149.3,131.4 149.3,136.5 144.6,136.5 144.6,131.4 139.6,131.4 139.6,126.7 144.6,126.7 "/>
  <polygon class="fil1" points="144.6,158.2 149.3,158.2 149.3,163.2 154.3,163.2 154.3,167.9 149.3,167.9 149.3,173 144.6,173 144.6,167.9 139.6,167.9 139.6,163.2 144.6,163.2 "/>
  <polygon class="fil1" points="144.6,194.7 149.3,194.7 149.3,199.7 154.3,199.7 154.3,204.4 149.3,204.4 149.3,209.4 144.6,209.4 144.6,204.4 139.6,204.4 139.6,199.7 144.6,199.7 "/>
  <polygon class="fil1" points="144.6,231.1 149.3,231.1 149.3,236.2 154.3,236.2 154.3,240.9 149.3,240.9 149.3,245.9 144.6,245.9 144.6,240.9 139.6,240.9 139.6,236.2 144.6,236.2 "/>
  <polygon class="fil1" points="144.6,267.6 149.3,267.6 149.3,272.7 154.3,272.7 154.3,277.4 149.3,277.4 149.3,282.4 144.6,282.4 144.6,277.4 139.6,277.4 139.6,272.7 144.6,272.7 "/>
  <polygon class="fil1" points="144.6,304.1 149.3,304.1 149.3,309.1 154.3,309.1 154.3,313.8 149.3,313.8 149.3,318.9 144.6,318.9 144.6,313.8 139.6,313.8 139.6,309.1 144.6,309.1 "/>
  <polygon class="fil1" points="144.6,340.6 149.3,340.6 149.3,345.6 154.3,345.6 154.3,350.3 149.3,350.3 149.3,355.4 144.6,355.4 144.6,350.3 139.6,350.3 139.6,345.6 144.6,345.6 "/>
  <polygon class="fil1" points="144.6,377.1 149.3,377.1 149.3,382.1 154.3,382.1 154.3,386.8 149.3,386.8 149.3,391.8 144.6,391.8 144.6,386.8 139.6,386.8 139.6,382.1 144.6,382.1 "/>
  <polygon class="fil1" points="144.6,413.5 149.3,413.5 149.3,418.6 154.3,418.6 154.3,423.3 149.3,423.3 149.3,428.3 144.6,428.3 144.6,423.3 139.6,423.3 139.6,418.6 144.6,418.6 "/>
  <polygon class="fil1" points="144.6,450 149.3,450 149.3,455.1 154.3,455.1 154.3,459.8 149.3,459.8 149.3,464.8 144.6,464.8 144.6,459.8 139.6,459.8 139.6,455.1 144.6,455.1 "/>
  <polygon class="fil1" points="179.4,48.7 184.2,48.7 184.2,53.8 189.2,53.8 189.2,58.5 184.2,58.5 184.2,63.5 179.4,63.5 179.4,58.5 174.5,58.5 174.5,53.8 179.4,53.8 "/>
  <polygon class="fil1" points="179.4,85.2 184.2,85.2 184.2,90.3 189.2,90.3 189.2,95 184.2,95 184.2,100 179.4,100 179.4,95 174.5,95 174.5,90.3 179.4,90.3 "/>
  <polygon class="fil1" points="179.4,121.7 184.2,121.7 184.2,126.7 189.2,126.7 189.2,131.4 184.2,131.4 184.2,136.5 179.4,136.5 179.4,131.4 174.5,131.4 174.5,126.7 179.4,126.7 "/>
  <polygon class="fil1" points="179.4,158.2 184.2,158.2 184.2,163.2 189.2,163.2 189.2,167.9 184.2,167.9 184.2,173 179.4,173 179.4,167.9 174.5,167.9 174.5,163.2 179.4,163.2 "/>
  <polygon class="fil1" points="179.4,194.7 184.2,194.7 184.2,199.7 189.2,199.7 189.2,204.4 184.2,204.4 184.2,209.4 179.4,209.4 179.4,204.4 174.5,204.4 174.5,199.7 179.4,199.7 "/>
  <polygon class="fil1" points="179.4,231.1 184.2,231.1 184.2,236.2 189.2,236.2 189.2,240.9 184.2,240.9 184.2,245.9 179.4,245.9 179.4,240.9 174.5,240.9 174.5,236.2 179.4,236.2 "/>
  <polygon class="fil1" points="179.4,267.6 184.2,267.6 184.2,272.7 189.2,272.7 189.2,277.4 184.2,277.4 184.2,282.4 179.4,282.4 179.4,277.4 174.5,277.4 174.5,272.7 179.4,272.7 "/>
  <polygon class="fil1" points="179.4,304.1 184.2,304.1 184.2,309.1 189.2,309.1 189.2,313.8 184.2,313.8 184.2,318.9 179.4,318.9 179.4,313.8 174.5,313.8 174.5,309.1 179.4,309.1 "/>
  <polygon class="fil1" points="179.4,340.6 184.2,340.6 184.2,345.6 189.2,345.6 189.2,350.3 184.2,350.3 184.2,355.4 179.4,355.4 179.4,350.3 174.5,350.3 174.5,345.6 179.4,345.6 "/>
  <polygon class="fil1" points="179.4,377.1 184.2,377.1 184.2,382.1 189.2,382.1 189.2,386.8 184.2,386.8 184.2,391.8 179.4,391.8 179.4,386.8 174.5,386.8 174.5,382.1 179.4,382.1 "/>
  <polygon class="fil1" points="179.4,413.5 184.2,413.5 184.2,418.6 189.2,418.6 189.2,423.3 184.2,423.3 184.2,428.3 179.4,428.3 179.4,423.3 174.5,423.3 174.5,418.6 179.4,418.6 "/>
  <polygon class="fil1" points="179.4,450 184.2,450 184.2,455.1 189.2,455.1 189.2,459.8 184.2,459.8 184.2,464.8 179.4,464.8 179.4,459.8 174.5,459.8 174.5,455.1 179.4,455.1 "/>
  <polygon class="fil1" points="214.3,48.7 219.1,48.7 219.1,53.8 224.1,53.8 224.1,58.5 219.1,58.5 219.1,63.5 214.3,63.5 214.3,58.5 209.4,58.5 209.4,53.8 214.3,53.8 "/>
  <polygon class="fil1" points="214.3,85.2 219.1,85.2 219.1,90.3 224.1,90.3 224.1,95 219.1,95 219.1,100 214.3,100 214.3,95 209.4,95 209.4,90.3 214.3,90.3 "/>
  <polygon class="fil1" points="214.3,121.7 219.1,121.7 219.1,126.7 224.1,126.7 224.1,131.4 219.1,131.4 219.1,136.5 214.3,136.5 214.3,131.4 209.4,131.4 209.4,126.7 214.3,126.7 "/>
  <polygon class="fil1" points="214.3,158.2 219.1,158.2 219.1,163.2 224.1,163.2 224.1,167.9 219.1,167.9 219.1,173 214.3,173 214.3,167.9 209.4,167.9 209.4,163.2 214.3,163.2 "/>
  <polygon class="fil1" points="214.3,194.7 219.1,194.7 219.1,199.7 224.1,199.7 224.1,204.4 219.1,204.4 219.1,209.4 214.3,209.4 214.3,204.4 209.4,204.4 209.4,199.7 214.3,199.7 "/>
  <polygon class="fil1" points="214.3,231.1 219.1,231.1 219.1,236.2 224.1,236.2 224.1,240.9 219.1,240.9 219.1,245.9 214.3,245.9 214.3,240.9 209.4,240.9 209.4,236.2 214.3,236.2 "/>
  <polygon class="fil1" points="214.3,267.6 219.1,267.6 219.1,272.7 224.1,272.7 224.1,277.4 219.1,277.4 219.1,282.4 214.3,282.4 214.3,277.4 209.4,277.4 209.4,272.7 214.3,272.7 "/>
  <polygon class="fil1" points="214.3,304.1 219.1,304.1 219.1,309.1 224.1,309.1 224.1,313.8 219.1,313.8 219.1,318.9 214.3,318.9 214.3,313.8 209.4,313.8 209.4,309.1 214.3,309.1 "/>
  <polygon class="fil1" points="214.3,340.6 219.1,340.6 219.1,345.6 224.1,345.6 224.1,350.3 219.1,350.3 219.1,355.4 214.3,355.4 214.3,350.3 209.4,350.3 209.4,345.6 214.3,345.6 "/>
  <polygon class="fil1" points="214.3,377.1 219.1,377.1 219.1,382.1 224.1,382.1 224.1,386.8 219.1,386.8 219.1,391.8 214.3,391.8 214.3,386.8 209.4,386.8 209.4,382.1 214.3,382.1 "/>
  <polygon class="fil1" points="214.3,413.5 219.1,413.5 219.1,418.6 224.1,418.6 224.1,423.3 219.1,423.3 219.1,428.3 214.3,428.3 214.3,423.3 209.4,423.3 209.4,418.6 214.3,418.6 "/>
  <polygon class="fil1" points="214.3,450 219.1,450 219.1,455.1 224.1,455.1 224.1,459.8 219.1,459.8 219.1,464.8 214.3,464.8 214.3,459.8 209.4,459.8 209.4,455.1 214.3,455.1 "/>
  <polygon class="fil1" points="249.2,48.7 254,48.7 254,53.8 259,53.8 259,58.5 254,58.5 254,63.5 249.2,63.5 249.2,58.5 244.3,58.5 244.3,53.8 249.2,53.8 "/>
  <polygon class="fil1" points="249.2,85.2 254,85.2 254,90.3 259,90.3 259,95 254,95 254,100 249.2,100 249.2,95 244.3,95 244.3,90.3 249.2,90.3 "/>
  <polygon class="fil1" points="249.2,121.7 254,121.7 254,126.7 259,126.7 259,131.4 254,131.4 254,136.5 249.2,136.5 249.2,131.4 244.3,131.4 244.3,126.7 249.2,126.7 "/>
  <polygon class="fil1" points="249.2,158.2 254,158.2 254,163.2 259,163.2 259,167.9 254,167.9 254,173 249.2,173 249.2,167.9 244.3,167.9 244.3,163.2 249.2,163.2 "/>
  <polygon class="fil1" points="249.2,194.7 254,194.7 254,199.7 259,199.7 259,204.4 254,204.4 254,209.4 249.2,209.4 249.2,204.4 244.3,204.4 244.3,199.7 249.2,199.7 "/>
  <polygon class="fil1" points="249.2,231.1 254,231.1 254,236.2 259,236.2 259,240.9 254,240.9 254,245.9 249.2,245.9 249.2,240.9 244.3,240.9 244.3,236.2 249.2,236.2 "/>
  <polygon class="fil1" points="249.2,267.6 254,267.6 254,272.7 259,272.7 259,277.4 254,277.4 254,282.4 249.2,282.4 249.2,277.4 244.3,277.4 244.3,272.7 249.2,272.7 "/>
  <polygon class="fil1" points="249.2,304.1 254,304.1 254,309.1 259,309.1 259,313.8 254,313.8 254,318.9 249.2,318.9 249.2,313.8 244.3,313.8 244.3,309.1 249.2,309.1 "/>
  <polygon class="fil1" points="249.2,340.6 254,340.6 254,345.6 259,345.6 259,350.3 254,350.3 254,355.4 249.2,355.4 249.2,350.3 244.3,350.3 244.3,345.6 249.2,345.6 "/>
  <polygon class="fil1" points="249.2,377.1 254,377.1 254,382.1 259,382.1 259,386.8 254,386.8 254,391.8 249.2,391.8 249.2,386.8 244.3,386.8 244.3,382.1 249.2,382.1 "/>
  <polygon class="fil1" points="249.2,413.5 254,413.5 254,418.6 259,418.6 259,423.3 254,423.3 254,428.3 249.2,428.3 249.2,423.3 244.3,423.3 244.3,418.6 249.2,418.6 "/>
  <polygon class="fil1" points="249.2,450 254,450 254,455.1 259,455.1 259,459.8 254,459.8 254,464.8 249.2,464.8 249.2,459.8 244.3,459.8 244.3,455.1 249.2,455.1 "/>
  <polygon class="fil1" points="284.1,48.7 288.9,48.7 288.9,53.8 293.9,53.8 293.9,58.5 288.9,58.5 288.9,63.5 284.1,63.5 284.1,58.5 279.2,58.5 279.2,53.8 284.1,53.8 "/>
  <polygon class="fil1" points="284.1,85.2 288.9,85.2 288.9,90.3 293.9,90.3 293.9,95 288.9,95 288.9,100 284.1,100 284.1,95 279.2,95 279.2,90.3 284.1,90.3 "/>
  <polygon class="fil1" points="284.1,121.7 288.9,121.7 288.9,126.7 293.9,126.7 293.9,131.4 288.9,131.4 288.9,136.5 284.1,136.5 284.1,131.4 279.2,131.4 279.2,126.7 284.1,126.7 "/>
  <polygon class="fil1" points="284.1,158.2 288.9,158.2 288.9,163.2 293.9,163.2 293.9,167.9 288.9,167.9 288.9,173 284.1,173 284.1,167.9 279.2,167.9 279.2,163.2 284.1,163.2 "/>
  <polygon class="fil1" points="284.1,194.7 288.9,194.7 288.9,199.7 293.9,199.7 293.9,204.4 288.9,204.4 288.9,209.4 284.1,209.4 284.1,204.4 279.2,204.4 279.2,199.7 284.1,199.7 "/>
  <polygon class="fil1" points="284.1,231.1 288.9,231.1 288.9,236.2 293.9,236.2 293.9,240.9 288.9,240.9 288.9,245.9 284.1,245.9 284.1,240.9 279.2,240.9 279.2,236.2 284.1,236.2 "/>
  <polygon class="fil1" points="284.1,267.6 288.9,267.6 288.9,272.7 293.9,272.7 293.9,277.4 288.9,277.4 288.9,282.4 284.1,282.4 284.1,277.4 279.2,277.4 279.2,272.7 284.1,272.7 "/>
  <polygon class="fil1" points="284.1,304.1 288.9,304.1 288.9,309.1 293.9,309.1 293.9,313.8 288.9,313.8 288.9,318.9 284.1,318.9 284.1,313.8 279.2,313.8 279.2,309.1 284.1,309.1 "/>
  <polygon class="fil1" points="284.1,340.6 288.9,340.6 288.9,345.6 293.9,345.6 293.9,350.3 288.9,350.3 288.9,355.4 284.1,355.4 284.1,350.3 279.2,350.3 279.2,345.6 284.1,345.6 "/>
  <polygon class="fil1" points="284.1,377.1 288.9,377.1 288.9,382.1 293.9,382.1 293.9,386.8 288.9,386.8 288.9,391.8 284.1,391.8 284.1,386.8 279.2,386.8 279.2,382.1 284.1,382.1 "/>
  <polygon class="fil1" points="284.1,413.5 288.9,413.5 288.9,418.6 293.9,418.6 293.9,423.3 288.9,423.3 288.9,428.3 284.1,428.3 284.1,423.3 279.2,423.3 279.2,418.6 284.1,418.6 "/>
  <polygon class="fil1" points="284.1,450 288.9,450 288.9,455.1 293.9,455.1 293.9,459.8 288.9,459.8 288.9,464.8 284.1,464.8 284.1,459.8 279.2,459.8 279.2,455.1 284.1,455.1 "/>
 </g>
</svg>
