<?xml version="1.0" encoding="UTF-8"?>
<!DOCTYPE svg PUBLIC "-//W3C//DTD SVG 1.1//EN" "http://www.w3.org/Graphics/SVG/1.1/DTD/svg11.dtd">
<!-- Creator: CorelDRAW 2018 (64 Bit Versão de avaliação) -->
<svg xmlns="http://www.w3.org/2000/svg" xml:space="preserve" width="4.4295mm" height="4.7916mm" version="1.1" style="shape-rendering:geometricPrecision; text-rendering:geometricPrecision; image-rendering:optimizeQuality; fill-rule:evenodd; clip-rule:evenodd"
viewBox="0 0 31.22 33.77"
 xmlns:xlink="http://www.w3.org/1999/xlink">
 <defs>
  <style type="text/css">
   <![CDATA[
    .fil0 {fill:#D4432D;fill-rule:nonzero}
   ]]>
  </style>
 </defs>
 <g id="Camada_x0020_1">
  <metadata id="CorelCorpID_0Corel-Layer"/>
  <path class="fil0" d="M0.85 32.92l29.52 0 0 -10.45 -9.93 -3.9 -4.72 4.23c-0.16,0.15 -0.42,0.14 -0.58,-0.01l-4.38 -4.21 -9.92 3.9 0 10.45zm29.95 0.85l-30.37 0c-0.23,0 -0.42,-0.19 -0.42,-0.42l0 -11.16c0,-0.17 0.11,-0.33 0.27,-0.39l10.44 -4.1c0.15,-0.06 0.33,-0.03 0.45,0.09l4.29 4.13 4.62 -4.14c0.12,-0.11 0.29,-0.14 0.44,-0.08l10.44 4.1c0.16,0.06 0.27,0.22 0.27,0.39l0 11.16c0,0.23 -0.19,0.42 -0.42,0.42z"/>
  <path class="fil0" d="M25.67 33.75l-20.12 0c-0.23,0 -0.42,-0.19 -0.42,-0.42l0 -7.01c0,-0.23 0.19,-0.42 0.42,-0.42 0.23,0 0.42,0.19 0.42,0.42l0 6.58 19.28 0 0 -6.58c0,-0.23 0.19,-0.42 0.42,-0.42 0.23,0 0.42,0.19 0.42,0.42l0 7.01c0,0.23 -0.19,0.42 -0.42,0.42z"/>
  <path class="fil0" d="M20.63 23.86l-10.04 0c-0.23,0 -0.42,-0.19 -0.42,-0.42l0 -5.36c0,-0.23 0.19,-0.42 0.42,-0.42 0.23,0 0.42,0.19 0.42,0.42l0 4.94 9.2 0 0 -4.94c0,-0.23 0.19,-0.42 0.42,-0.42 0.23,0 0.42,0.19 0.42,0.42l0 5.36c0,0.23 -0.19,0.42 -0.42,0.42z"/>
  <path class="fil0" d="M14.52 26.52l2.17 0 0 -2.65 -2.17 0 0 2.65zm2.6 0.85l-3.02 0c-0.23,0 -0.42,-0.19 -0.42,-0.42l0 -3.5c0,-0.23 0.19,-0.42 0.42,-0.42l3.02 0c0.23,0 0.42,0.19 0.42,0.42l0 3.5c0,0.23 -0.19,0.42 -0.42,0.42z"/>
  <path class="fil0" d="M13.09 32.92l4.74 0 -1.07 -5.56 -2.34 0 -1.34 5.56zm5.25 0.85l-5.79 0c-0.13,0 -0.25,-0.06 -0.33,-0.16 -0.08,-0.1 -0.11,-0.23 -0.08,-0.36l1.54 -6.41c0.05,-0.19 0.22,-0.32 0.41,-0.32l3.02 0c0.2,0 0.38,0.14 0.42,0.34l1.23 6.41c0.02,0.12 -0.01,0.25 -0.09,0.35 -0.08,0.1 -0.2,0.15 -0.33,0.15z"/>
  <path class="fil0" d="M15.74 0.85c-3.92,0 -7.1,3.18 -7.1,7.1 0,3.92 3.19,7.11 7.1,7.11 3.92,0 7.1,-3.19 7.1,-7.11 0,-3.91 -3.19,-7.1 -7.1,-7.1zm0 15.05c-4.38,0 -7.95,-3.57 -7.95,-7.96 0,-4.38 3.57,-7.94 7.95,-7.94 4.38,0 7.95,3.56 7.95,7.94 0,4.39 -3.57,7.96 -7.95,7.96z"/>
  <path class="fil0" d="M21.45 6.64c-1.95,0 -3.84,-0.59 -5.19,-1.63 -0.19,-0.14 -0.22,-0.41 -0.08,-0.59 0.14,-0.19 0.41,-0.22 0.59,-0.08 1.55,1.19 3.95,1.71 6.19,1.32 0.23,-0.04 0.45,0.11 0.49,0.35 0.04,0.23 -0.11,0.45 -0.34,0.49 -0.54,0.09 -1.1,0.14 -1.66,0.14z"/>
  <path class="fil0" d="M11.77 6.5c-1.16,0 -2.27,-0.2 -3.31,-0.59 -0.22,-0.08 -0.33,-0.33 -0.25,-0.55 0.08,-0.22 0.33,-0.33 0.54,-0.25 0.94,0.36 1.95,0.53 3.01,0.53 3.48,0 6.3,-1.97 6.3,-4.38 0,-0.23 0.19,-0.42 0.42,-0.42 0.23,0 0.42,0.19 0.42,0.42 0,2.88 -3.21,5.23 -7.15,5.23z"/>
 </g>
</svg>
