<?xml version="1.0" encoding="UTF-8" standalone="no"?>
<!-- Creator: CorelDRAW 2018 (64 Bit Versão de avaliação) -->

<svg
   xmlns:dc="http://purl.org/dc/elements/1.1/"
   xmlns:cc="http://creativecommons.org/ns#"
   xmlns:rdf="http://www.w3.org/1999/02/22-rdf-syntax-ns#"
   xmlns:svg="http://www.w3.org/2000/svg"
   xmlns="http://www.w3.org/2000/svg"
   xmlns:sodipodi="http://sodipodi.sourceforge.net/DTD/sodipodi-0.dtd"
   xmlns:inkscape="http://www.inkscape.org/namespaces/inkscape"
   xml:space="preserve"
   width="176.10001"
   height="44.824001"
   version="1.1"
   style="clip-rule:evenodd;fill-rule:evenodd;image-rendering:optimizeQuality;shape-rendering:geometricPrecision;text-rendering:geometricPrecision"
   viewBox="0 0 1834.3751 466.91668"
   id="svg12"
   sodipodi:docname="statistics.svg"
   inkscape:version="0.92.4 (5da689c313, 2019-01-14)"><metadata
   id="metadata16"><rdf:RDF><cc:Work
       rdf:about=""><dc:format>image/svg+xml</dc:format><dc:type
         rdf:resource="http://purl.org/dc/dcmitype/StillImage" /><dc:title></dc:title></cc:Work></rdf:RDF></metadata><sodipodi:namedview
   pagecolor="#ffffff"
   bordercolor="#666666"
   borderopacity="1"
   objecttolerance="10"
   gridtolerance="10"
   guidetolerance="10"
   inkscape:pageopacity="0"
   inkscape:pageshadow="2"
   inkscape:window-width="1366"
   inkscape:window-height="736"
   id="namedview14"
   showgrid="false"
   units="px"
   inkscape:zoom="1.8114856"
   inkscape:cx="56.935514"
   inkscape:cy="26.924482"
   inkscape:window-x="0"
   inkscape:window-y="32"
   inkscape:window-maximized="1"
   inkscape:current-layer="svg12" />
 <defs
   id="defs4">
  <style
   type="text/css"
   id="style2">
   <![CDATA[
    .fil0 {fill:#1E1E69;fill-rule:nonzero}
    .fil1 {fill:#D4432D;fill-rule:nonzero}
   ]]>
  </style>
 
  
  
  
 </defs>
 <path
   style="fill:#1e1e69;fill-rule:nonzero"
   inkscape:connector-curvature="0"
   id="path7"
   d="m 525.16254,244.22834 c -2.13,0 -3.51,1.06 -4.05,3.19 l -13.73,44.59 c -1.06,3.51 -1.81,6.7 -2.77,10.11 h -1.9 c -0.96,-3.41 -1.7,-6.6 -2.77,-9.9 l -13.73,-44.81 c -0.64,-2.13 -1.81,-3.19 -3.94,-3.19 h -10.65 c -2.46,0 -3.85,1.38 -3.96,3.94 l -2.87,69.5 h 9.39 l 2.56,-65.67 h 2.13 l 16.39,54.17 c 0.64,2.02 2.02,3.19 4.26,3.19 h 8.39 c 2.13,0 3.51,-1.17 4.05,-3.19 l 16.39,-54.17 h 2.23 l 2.66,65.67 h 9.39 l -3.09,-69.5 c 0,-2.56 -1.39,-3.94 -3.85,-3.94 h -10.54 z m -478.549999,126.66 h -9.05 v 15.96 c 0,3.62 0.11,6.81 0.43,10.11 -5.75,-3.09 -12.03,-4.69 -18.41,-4.69 -13.3000004,0 -19.58000044,6.81 -19.58000044,27.04 0,18.09 5.11000004,27.35 18.20000044,27.35 7.98,0 14.9,-3.83 20.54,-8.72 l 0.85,7.45 h 7.02 z m -37.3600004,48.32 c 0,-15.33 3.5100004,-19.05 12.4500004,-19.05 5.43,0 9.79,1.17 15.86,2.87 v 28.63 c -7.02,5 -10.64,7.13 -16.39,7.13 -8.41,0 -11.9200004,-4.26 -11.9200004,-19.58 z m 75.9900004,-26.93 c -17.78,0 -24.37,7.45 -24.37,27.25 0,19.9 6.6,27.24 24.37,27.24 17.879999,0 24.369999,-7.34 24.369999,-27.24 0,-19.8 -6.49,-27.25 -24.369999,-27.25 z m 0,7.66 c 11.28,0 14.999999,4.47 14.999999,19.59 0,15.11 -3.719999,19.58 -14.999999,19.58 -11.28,0 -14.9,-4.47 -14.9,-19.58 0,-15.11 3.62,-19.59 14.9,-19.59 z m 55.769999,-7.66 c -14.15,-0.21 -20.22,2.24 -20.22,14.26 0,8.51 3.3,12.45 11.7,14.47 l 14.9,3.41 c 5,1.17 8.2,2.13 8.2,7.24 0,6.17 -3.62,7.24 -15.22,7.24 -6.7,0.11 -12.77,-0.11 -17.88,-0.43 l -0.64,6.6 c 8.83,1.38 16.6,1.49 20.33,1.49 15,0 22.14,-2.13 22.14,-14.9 0,-8.83 -3.83,-12.24 -12.03,-14.26 l -15.11,-3.41 c -5,-1.17 -7.56,-2.02 -7.56,-7.45 0,-6.49 3.19,-6.71 12.77,-6.6 6.49,0 13.2,0.32 19.69,0.54 l 0.74,-6.6 c -6.39,-0.96 -15.01,-1.49 -21.82,-1.6 z m 88.46,0 c -7.02,0 -13.82,3.19 -19.99,9.47 0.85,-3.72 0.96,-7.13 0.96,-11.5 v -19.37 h -9.06 v 72.06 c 6.94,2.45 16.62,3.72 23.84,3.72 17.76,0 22.97,-9.58 22.97,-27.35 0,-19.48 -5.96,-27.04 -18.72,-27.04 z m -4.47,46.72 c -4.47,0.11 -9.56,-0.43 -14.57,-1.7 l -0.11,-29.37 c 6.07,-4.79 10.63,-7.77 15.95,-7.77 10,0 12.44,4.89 12.54,19.16 -0.11,14.69 -3.81,19.58 -13.82,19.69 z m 69.69,-46.72 h -2.34 c -7.02,0 -14.69,3.51 -22.14,9.47 l -0.96,-8.2 h -7.02 v 51.83 h 9.05 v -38 c 8.19,-4.15 13.52,-6.6 19.37,-6.6 h 2.98 l 1.06,-8.52 z m 34.7,0 c -7.77,0 -17.88,1.17 -25.01,2.34 l 0.85,6.7 c 7.87,-0.74 16.81,-1.39 22.24,-1.39 8.19,0 10.54,2.56 10.54,8.94 v 4.59 h -21.61 c -9.05,0 -14.37,4.7 -14.37,12.79 v 5.62 c 0,9.35 6.28,14.46 15.54,14.46 9.58,0 17.35,-5.43 21.39,-9.56 l 1.06,8.6 h 7.13 v -36.51 c 0,-12.56 -6.28,-16.6 -17.78,-16.6 z m -10,46.3 c -5.64,0 -8.09,-2.32 -8.09,-7.75 v -3.3 c 0,-4.35 1.7,-6.9 6.7,-7.11 l 20.01,-0.11 v 10.52 c -6.07,5.32 -13.52,7.86 -18.63,7.75 z m 61.2,-46.3 c -14.15,-0.21 -20.22,2.24 -20.22,14.26 0,8.51 3.3,12.45 11.7,14.47 l 14.9,3.41 c 5,1.17 8.2,2.13 8.2,7.24 0,6.17 -3.62,7.24 -15.22,7.24 -6.7,0.11 -12.77,-0.11 -17.88,-0.43 l -0.64,6.6 c 8.83,1.38 16.6,1.49 20.33,1.49 15,0 22.14,-2.13 22.14,-14.9 0,-8.83 -3.83,-12.24 -12.03,-14.26 l -15.11,-3.41 c -5,-1.17 -7.56,-2.02 -7.56,-7.45 0,-6.49 3.19,-6.71 12.77,-6.6 6.49,0 13.2,0.32 19.69,0.54 l 0.74,-6.6 c -6.39,-0.96 -15.01,-1.49 -21.82,-1.6 z m 39.59,-20.76 c -1.81,0 -2.77,1.07 -2.77,2.77 v 6.07 c 0,1.92 0.96,2.77 2.77,2.77 h 4.26 c 1.92,0 2.77,-0.85 2.77,-2.77 v -6.07 c 0,-1.7 -0.85,-2.77 -2.77,-2.77 z m 6.6,73.87 v -51.83 h -8.94 v 51.83 z m 26.18,-74.5 h -9.05 v 62.26 c 0,8.52 5,13.2 12.67,13.2 2.56,0 7.45,-0.43 9.47,-1.38 l -1.07,-6.92 h -5 c -4.58,0 -7.13,-2.34 -7.13,-6.92 z m 45.87,68.12 c -10.64,0 -15.43,-2.77 -16.28,-15.11 h 24.06 c 8.62,0 12.45,-5.43 12.35,-14.69 0,-11.17 -6.6,-16.92 -22.25,-16.92 -16.71,0 -23.84,6.7 -23.84,27.04 0,19.9 6.92,27.35 24.8,27.35 5.96,0 15.22,-0.85 20.11,-2.87 l -0.96,-6.06 c -5.32,0.74 -12.45,1.28 -17.99,1.28 z m -1.7,-39.06 c 9.26,0 12.67,2.66 12.77,9.26 0,3.83 -0.96,7.67 -5.64,7.67 h -21.93 c 0.32,-13.09 4.04,-16.93 14.8,-16.93 z m 38.21,-28.42 c -1.81,0 -2.77,1.07 -2.77,2.77 v 6.07 c 0,1.92 0.96,2.77 2.77,2.77 h 4.26 c 1.92,0 2.77,-0.85 2.77,-2.77 v -6.07 c 0,-1.7 -0.85,-2.77 -2.77,-2.77 z m 6.6,73.87 v -51.83 h -8.94 v 51.83 z m 49.49,-53.11 h -2.34 c -7.02,0 -14.69,3.51 -22.14,9.47 l -0.96,-8.2 h -7.02 v 51.83 h 9.05 v -38 c 8.19,-4.15 13.52,-6.6 19.37,-6.6 h 2.98 l 1.06,-8.52 z m 30.76,0 c -17.78,0 -24.37,7.45 -24.37,27.25 0,19.9 6.6,27.24 24.37,27.24 17.88,0 24.37,-7.34 24.37,-27.24 0,-19.8 -6.49,-27.25 -24.37,-27.25 z m 0,7.66 c 11.28,0 15,4.47 15,19.59 0,15.11 -3.72,19.58 -15,19.58 -11.28,0 -14.9,-4.47 -14.9,-19.58 0,-15.11 3.62,-19.59 14.9,-19.59 z m 55.77,-7.66 c -14.15,-0.21 -20.22,2.24 -20.22,14.26 0,8.51 3.3,12.45 11.7,14.47 l 14.9,3.41 c 5,1.17 8.2,2.13 8.2,7.24 0,6.17 -3.62,7.24 -15.22,7.24 -6.7,0.11 -12.77,-0.11 -17.88,-0.43 l -0.64,6.6 c 8.83,1.38 16.6,1.49 20.33,1.49 15,0 22.14,-2.13 22.14,-14.9 0,-8.83 -3.83,-12.24 -12.03,-14.26 l -15.11,-3.41 c -5,-1.17 -7.56,-2.02 -7.56,-7.45 0,-6.49 3.19,-6.71 12.77,-6.6 6.49,0 13.2,0.32 19.69,0.54 l 0.74,-6.6 c -6.39,-0.96 -15.01,-1.49 -21.82,-1.6 z m 71.63,8.41 h 16.5 v -7.13 h -16.5 v -15.32 h -9.05 v 15.32 l -9.37,0.54 v 6.6 h 9.37 v 31.61 c 0,9.05 4.57,14.05 13.3,14.05 2.56,0 8.3,-0.43 11.71,-1.38 l -1.06,-6.92 h -7.88 c -5.11,0 -7.02,-1.92 -7.02,-6.92 v -30.44 z m 34.8,-14.16 13.83,-10.32 h 0.85 l 13.73,10.32 3.19,-3.94 -14.15,-13.52 h -6.5 l -14.05,13.52 3.09,3.94 z m 16.07,52.47 c -10.64,0 -15.43,-2.77 -16.28,-15.11 h 24.16 c 8.62,0 12.35,-5.43 12.35,-14.69 -0.11,-11.17 -6.71,-16.92 -22.25,-16.92 -16.71,0 -23.84,6.7 -23.84,27.04 0,19.9 6.92,27.35 24.69,27.35 6.07,0 15.33,-0.85 20.11,-2.87 l -0.85,-6.06 c -5.32,0.74 -12.45,1.28 -18.09,1.28 z m -1.7,-39.06 c 9.37,0 12.77,2.66 12.77,9.26 0.11,3.83 -0.85,7.67 -5.54,7.67 h -22.03 c 0.32,-13.09 4.04,-16.93 14.8,-16.93 z m 98.66,-7.66 c -6.92,0 -13.73,3.09 -20.86,9.26 -1.49,-6.17 -5.96,-9.26 -13.09,-9.26 -7.24,0 -13.94,3.19 -21.18,9.47 l -0.53,-8.2 h -7.45 v 51.83 h 9.05 v -37.46 c 7.98,-5.75 11.81,-7.98 17.03,-7.98 5.43,0 8.09,2.45 8.09,9.15 v 36.3 h 8.72 v -37.46 c 7.88,-5.64 11.71,-7.98 17.03,-7.98 5.75,0 7.98,2.77 8.09,9.15 v 36.3 h 8.94 v -38.85 c 0,-9.37 -4.89,-14.26 -13.83,-14.26 z m 113.02996,46.94 h -5.11 c -4.47,0 -7.01996,-2.34 -7.01996,-7.02 v -61.84 c -7.13,-1.17 -24.05,-1.28 -29.69,-1.28 -11.07,-0.11 -15.01,5.85 -15.01,16.28 v 8.19 l -9.37,0.54 v 6.6 h 9.37 v 44.7 h 9.05 v -44.7 h 15.54 v -7.13 h -15.54 v -7.24 c 0,-7.34 2.34,-10 9.15,-9.9 h 17.45 v 57.79 c 0,7.67 4.9,12.13 12.66996,12.13 2.56,0 7.45,-0.43 9.47,-1.38 l -0.96,-5.75 z m 54.39,-45.66 h -9.05 v 37.89 c -7.56,4.89 -12.56,7.45 -18.09,7.45 -5.96,0 -8.3,-2.34 -8.2,-8.94 v -36.4 h -9.04 v 38.96 c 0,9.37 4.79,14.26 14.15,14.26 7.45,0 14.58,-3.09 22.35,-8.94 l 0.64,7.56 h 7.24 v -51.83 z m 23.84,-7.02 13.83,-10.32 h 0.85 l 13.73,10.32 3.19,-3.94 -14.15,-13.52 h -6.5 l -14.05,13.52 3.09,3.94 z m 16.07,52.47 c -10.64,0 -15.43,-2.77 -16.28,-15.11 h 24.16 c 8.62,0 12.35,-5.43 12.35,-14.69 -0.11,-11.17 -6.71,-16.92 -22.25,-16.92 -16.71,0 -23.84,6.7 -23.84,27.04 0,19.9 6.92,27.35 24.69,27.35 6.07,0 15.33,-0.85 20.11,-2.87 l -0.85,-6.06 c -5.32,0.74 -12.45,1.28 -18.09,1.28 z m -1.7,-39.06 c 9.37,0 12.77,2.66 12.77,9.26 0.11,3.83 -0.85,7.67 -5.54,7.67 h -22.03 c 0.32,-13.09 4.04,-16.93 14.8,-16.93 z m 67.05,-7.66 c -7.67,0 -15.33,3.41 -23.2,9.47 l -0.64,-8.2 h -7.66 v 51.83 h 9.05 v -37.36 c 8.3,-5 13.83,-8.09 20.01,-8.09 5.32,0 7.45,2.24 7.45,9.15 v 36.3 h 9.05 v -38.85 c 0,-9.37 -4.89,-14.26 -14.05,-14.26 z m 52.47,0 c -17.99,0 -24.69,7.13 -24.69,27.14 0,20.01 6.7,27.24 24.59,27.24 6.07,0 12.56,-0.85 17.77,-2.66 l -0.96,-6.07 c -5.32,0.85 -12.13,1.06 -15.22,1.06 -12.35,0 -16.6,-4.36 -16.6,-19.58 0,-15.11 4.26,-19.48 16.6,-19.48 3.62,0 9.37,0.22 14.05,0.64 l 1.17,-5.85 c -5.11,-1.92 -12.13,-2.45 -16.71,-2.45 z m 32.68,-20.76 c -1.81,0 -2.77,1.07 -2.77,2.77 v 6.07 c 0,1.92 0.96,2.77 2.77,2.77 h 4.26 c 1.92,0 2.77,-0.85 2.77,-2.77 v -6.07 c 0,-1.7 -0.85,-2.77 -2.77,-2.77 z m 6.6,73.87 v -51.83 h -8.94 v 51.83 z m 41.5,-53.11 c -7.77,0 -17.88,1.17 -25.01,2.34 l 0.85,6.7 c 7.87,-0.74 16.81,-1.39 22.24,-1.39 8.19,0 10.54,2.56 10.54,8.94 v 4.59 h -21.61 c -9.05,0 -14.37,4.7 -14.37,12.79 v 5.62 c 0,9.35 6.28,14.46 15.54,14.46 9.58,0 17.35,-5.43 21.39,-9.56 l 1.06,8.6 h 7.13 v -36.51 c 0,-12.56 -6.28,-16.6 -17.78,-16.6 z m -10,46.3 c -5.64,0 -8.09,-2.32 -8.09,-7.75 v -3.3 c 0,-4.35 1.7,-6.9 6.7,-7.11 l 20.01,-0.11 v 10.52 c -6.07,5.32 -13.52,7.86 -18.63,7.75 z m 91.11,0.43 c -10.64,0 -15.43,-2.77 -16.28,-15.11 h 24.06 c 8.62,0 12.45,-5.43 12.35,-14.69 0,-11.17 -6.6,-16.92 -22.25,-16.92 -16.71,0 -23.84,6.7 -23.84,27.04 0,19.9 6.92,27.35 24.8,27.35 5.96,0 15.22,-0.85 20.11,-2.87 l -0.96,-6.06 c -5.32,0.74 -12.45,1.28 -17.99,1.28 z m -1.7,-39.06 c 9.26,0 12.67,2.66 12.77,9.26 0,3.83 -0.96,7.67 -5.64,7.67 h -21.93 c 0.32,-13.09 4.04,-16.93 14.8,-16.93 z m 98.56,-7.66 c -6.92,0 -13.73,3.09 -20.86,9.26 -1.49,-6.17 -5.96,-9.26 -13.09,-9.26 -7.24,0 -13.94,3.19 -21.18,9.47 l -0.53,-8.2 h -7.45 v 51.83 h 9.05 v -37.46 c 7.98,-5.75 11.81,-7.98 17.03,-7.98 5.43,0 8.09,2.45 8.09,9.15 v 36.3 h 8.72 v -37.46 c 7.88,-5.64 11.71,-7.98 17.03,-7.98 5.75,0 7.98,2.77 8.09,9.15 v 36.3 h 8.94 v -38.85 c 0,-9.37 -4.89,-14.26 -13.83,-14.26 z m 56.63,-20.76 c -1.81,0 -2.77,1.07 -2.77,2.77 v 6.07 c 0,1.92 0.96,2.77 2.77,2.77 h 4.26 c 1.92,0 2.77,-0.85 2.77,-2.77 v -6.07 c 0,-1.7 -0.85,-2.77 -2.77,-2.77 z m 6.6,73.87 v -51.83 h -8.94 v 51.83 z m 48.53,-53.11 c -7.67,0 -15.33,3.41 -23.2,9.47 l -0.64,-8.2 h -7.66 v 51.83 h 9.05 v -37.36 c 8.3,-5 13.83,-8.09 20.01,-8.09 5.32,0 7.45,2.24 7.45,9.15 v 36.3 h 9.05 v -38.85 c 0,-9.37 -4.89,-14.26 -14.05,-14.26 z m 78.55,6.28 0.53,-5 h -16.39 c -3.09,-0.85 -7.02,-1.28 -11.81,-1.28 -16.71,0 -22.24,4.9 -22.24,16.6 0,6.49 1.81,10.96 6.6,13.63 -4.79,3.41 -5.85,12.13 -0.33,16.07 -6.05,3.19 -8.5,6.28 -8.5,12.56 0,11.81 6.28,15.75 25.01,15.75 18.52,0 24.69,-3.94 24.69,-16.07 0,-8.62 -3.3,-13.09 -13.09,-14.58 l -19.39,-3.09 c -5.64,-0.85 -5.96,-5.54 -3.62,-8.94 2.87,0.74 6.49,1.07 10.77,1.07 16.6,0 22.24,-5.11 22.24,-16.5 0,-3.94 -0.64,-7.13 -2.13,-9.58 z m -27.78,19.8 c -10.32,0 -13.83,-2.77 -13.83,-9.58 0,-6.92 3.51,-9.58 13.83,-9.58 10.43,0 13.84,2.66 13.84,9.58 0,6.81 -3.41,9.58 -13.84,9.58 z m 16.5,32.04 c 0,7.13 -3.41,8.83 -15.96,8.83 -12.67,0 -16.07,-1.49 -16.07,-8.83 0,-4.37 1.7,-7.03 5.43,-9.9 l 17.67,2.45 c 7.34,1.17 8.94,2.24 8.94,7.45 z m 31.61,-79.51 h -9.05 v 62.26 c 0,8.52 5,13.2 12.67,13.2 2.56,0 7.45,-0.43 9.47,-1.38 l -1.07,-6.92 h -5 c -4.58,0 -7.13,-2.34 -7.13,-6.92 z m 29.69,15.65 13.83,-10.32 h 0.85 l 13.73,10.32 3.19,-3.94 -14.15,-13.52 h -6.5 l -14.05,13.52 3.09,3.94 z m 16.07,52.47 c -10.64,0 -15.43,-2.77 -16.28,-15.11 h 24.16 c 8.62,0 12.35,-5.43 12.35,-14.69 -0.11,-11.17 -6.71,-16.92 -22.25,-16.92 -16.71,0 -23.84,6.7 -23.84,27.04 0,19.9 6.92,27.35 24.69,27.35 6.07,0 15.33,-0.85 20.11,-2.87 l -0.85,-6.06 c -5.32,0.74 -12.45,1.28 -18.09,1.28 z m -1.7,-39.06 c 9.37,0 12.77,2.66 12.77,9.26 0.11,3.83 -0.85,7.67 -5.54,7.67 h -22.03 c 0.32,-13.09 4.04,-16.93 14.8,-16.93 z m 52.79,-7.66 c -14.15,-0.21 -20.22,2.24 -20.22,14.26 0,8.51 3.3,12.45 11.7,14.47 l 14.9,3.41 c 5,1.17 8.2,2.13 8.2,7.24 0,6.17 -3.62,7.24 -15.22,7.24 -6.7,0.11 -12.77,-0.11 -17.88,-0.43 l -0.64,6.6 c 8.83,1.38 16.6,1.49 20.33,1.49 15,0 22.14,-2.13 22.14,-14.9 0,-8.83 -3.83,-12.24 -12.03,-14.26 l -15.11,-3.41 c -5,-1.17 -7.56,-2.02 -7.56,-7.45 0,-6.49 3.19,-6.71 12.77,-6.6 6.49,0 13.2,0.32 19.69,0.54 l 0.74,-6.6 c -6.39,-0.96 -15.01,-1.49 -21.82,-1.6 z m 39.17,40.55 c -2.44,0 -3.41,0.85 -3.41,3.41 v 5.75 c 0,2.56 0.96,3.41 3.41,3.41 h 2.98 c 2.56,0 3.41,-0.85 3.41,-3.41 v -5.75 c 0,-2.56 -0.85,-3.41 -3.41,-3.41 z m -581.81,-250.7 c -24.55,0 -32.98,9.37 -32.98,38.61 0,29.24 8.43,38.61 32.98,38.61 24.74,0 33.36,-9.37 33.36,-38.61 0,-29.24 -8.62,-38.61 -33.36,-38.61 z m 20.8,131.94 74.03,-129.31 h -20.99 l -74.03,129.31 z m -20.8,-113.76 c 6.75,0 8.25,2.44 8.25,20.43 0,18.18 -1.5,20.43 -8.25,20.43 -6.56,0 -8.06,-2.25 -8.06,-20.43 0,-17.99 1.5,-20.43 8.06,-20.43 z m 94.83,38.98 c -24.55,0 -32.98,9.37 -32.98,38.61 0,29.24 8.43,38.61 32.98,38.61 24.74,0 33.36,-9.37 33.36,-38.61 0,-29.24 -8.62,-38.61 -33.36,-38.61 z m 0,18.37 c 6.56,0 8.25,2.06 8.25,20.24 0,17.99 -1.69,20.43 -8.25,20.43 -6.75,0 -8.24,-2.43 -8.06,-20.43 -0.19,-18.18 1.31,-20.24 8.06,-20.24 z m -257.16,-257.6999976 c -34.07,0 -68.59,2.69 -103.54996,8.52 l 2.69,58.2799996 c 22.85996,-0.45 54.23996,-0.9 86.06996,-0.9 31.38,0 40.34,4.04 40.34,29.14 0.45,21.149998 -2.69,33.699998 -36.31,33.699998 h -59.17 v 53.87 l 59.17,-0.45 c 33.17,-0.44 40.34,9.86 40.34,36.24 0,31.38 -11.65,37.13 -51.1,37.13 -26.9,0 -46.62,-0.45 -85.61996,-2.69 l -2.69,60.52 c 34.95996,4.93 73.95996,8.52 111.16996,8.52 82.03,0 112.07,-26.9 111.17,-92.27 -0.45,-47 -13.89,-70.75 -57.38,-77.55 v -1.8 c 39.9,-6.28 49.31,-33.62 49.31,-78.069998 0,-55.13 -28.69,-72.1699996 -104.45,-72.1699996 z M 860.27254,243.19834 h -9.05 v 15.96 c 0,3.62 0.11,6.81 0.43,10.11 -5.75,-3.09 -12.03,-4.69 -18.41,-4.69 -13.3,0 -19.58,6.81 -19.58,27.04 0,18.09 5.11,27.35 18.2,27.35 7.98,0 14.9,-3.83 20.54,-8.72 l 0.85,7.45 h 7.02 z m -37.36,48.32 c 0,-15.33 3.51,-19.05 12.45,-19.05 5.43,0 9.79,1.17 15.86,2.87 v 28.63 c -7.02,5 -10.64,7.13 -16.39,7.13 -8.41,0 -11.92,-4.26 -11.92,-19.58 z m 77.48,19.8 c -10.64,0 -15.43,-2.77 -16.28,-15.11 h 24.06 c 8.62,0 12.45,-5.43 12.35,-14.69 0,-11.17 -6.6,-16.92 -22.25,-16.92 -16.71,0 -23.84,6.7 -23.84,27.04 0,19.9 6.92,27.35 24.8,27.35 5.96,0 15.22,-0.85 20.11,-2.87 l -0.96,-6.06 c -5.32,0.74 -12.45,1.28 -17.99,1.28 z m -1.7,-39.06 c 9.26,0 12.67,2.66 12.77,9.26 0,3.83 -0.96,7.67 -5.64,7.67 h -21.93 c 0.32,-13.09 4.04,-16.93 14.8,-16.93 z m -316.55,39.06 c -10.64,0 -15.43,-2.77 -16.28,-15.11 h 24.06 c 8.62,0 12.45,-5.43 12.35,-14.69 0,-11.17 -6.6,-16.92 -22.25,-16.92 -16.71,0 -23.84,6.7 -23.84,27.04 0,19.9 6.92,27.35 24.8,27.35 5.96,0 15.22,-0.85 20.11,-2.87 l -0.96,-6.06 c -5.32,0.74 -12.45,1.28 -17.99,1.28 z m -1.7,-39.06 c 9.26,0 12.67,2.66 12.77,9.26 0,3.83 -0.96,7.67 -5.64,7.67 h -21.93 c 0.32,-13.09 4.04,-16.93 14.8,-16.93 z m 66.94,-7.66 c -7.67,0 -15.33,3.41 -23.2,9.47 l -0.64,-8.2 h -7.66 v 51.83 h 9.05 v -37.36 c 8.3,-5 13.83,-8.09 20.01,-8.09 5.32,0 7.45,2.24 7.45,9.15 v 36.3 h 9.05 v -38.85 c 0,-9.37 -4.89,-14.26 -14.05,-14.26 z m 52.26,0 c -17.78,0 -24.37,7.45 -24.37,27.25 0,19.9 6.6,27.24 24.37,27.24 17.88,0 24.37,-7.34 24.37,-27.24 0,-19.8 -6.49,-27.25 -24.37,-27.25 z m 0,7.66 c 11.28,0 15,4.47 15,19.59 0,15.11 -3.72,19.58 -15,19.58 -11.28,0 -14.9,-4.47 -14.9,-19.58 0,-15.11 3.62,-19.59 14.9,-19.59 z m 55.77,-7.66 c -14.15,-0.21 -20.22,2.24 -20.22,14.26 0,8.51 3.3,12.45 11.7,14.47 l 14.9,3.41 c 5,1.17 8.2,2.13 8.2,7.24 0,6.17 -3.62,7.24 -15.22,7.24 -6.7,0.11 -12.77,-0.11 -17.88,-0.43 l -0.64,6.6 c 8.83,1.38 16.6,1.49 20.33,1.49 15,0 22.14,-2.13 22.14,-14.9 0,-8.83 -3.83,-12.24 -12.03,-14.26 l -15.11,-3.41 c -5,-1.17 -7.56,-2.02 -7.56,-7.45 0,-6.49 3.19,-6.71 12.77,-6.6 6.49,0 13.2,0.32 19.69,0.54 l 0.74,-6.6 c -6.39,-0.96 -15.01,-1.49 -21.82,-1.6 z"
   class="fil0" />
</svg>