<?xml version="1.0" encoding="UTF-8"?>
<!DOCTYPE svg PUBLIC "-//W3C//DTD SVG 1.1//EN" "http://www.w3.org/Graphics/SVG/1.1/DTD/svg11.dtd">
<!-- Creator: CorelDRAW 2018 (64 Bit Versão de avaliação) -->
<svg xmlns="http://www.w3.org/2000/svg" xml:space="preserve" width="3.7501mm" height="4.9156mm" version="1.1" style="shape-rendering:geometricPrecision; text-rendering:geometricPrecision; image-rendering:optimizeQuality; fill-rule:evenodd; clip-rule:evenodd"
viewBox="0 0 23.47 30.77"
 xmlns:xlink="http://www.w3.org/1999/xlink">
 <defs>
  <style type="text/css">
   <![CDATA[
    .fil0 {fill:#D4432D;fill-rule:nonzero}
   ]]>
  </style>
 </defs>
 <g id="Camada_x0020_1">
  <metadata id="CorelCorpID_0Corel-Layer"/>
  <path class="fil0" d="M2.17 4.88l0 3.58c0,0.58 0.17,1.13 0.5,1.6 0.18,0.27 0.41,0.5 0.67,0.7l0 -5.87 -1.17 0zm1.42 6.58c-0.04,0 -0.08,-0.01 -0.12,-0.03 -0.49,-0.25 -0.91,-0.63 -1.22,-1.09 -0.38,-0.55 -0.59,-1.21 -0.59,-1.89l0 -3.83c0,-0.14 0.11,-0.25 0.25,-0.25l1.67 0c0.14,0 0.25,0.11 0.25,0.25l0 6.58c0,0.09 -0.05,0.17 -0.12,0.22 -0.04,0.02 -0.09,0.04 -0.13,0.04zm16.56 -6.58l0 5.87c0.26,-0.19 0.48,-0.43 0.67,-0.69 0.32,-0.47 0.5,-1.03 0.5,-1.6l0 -3.58 -1.16 0zm-0.25 6.58c-0.05,0 -0.09,-0.01 -0.13,-0.04 -0.08,-0.05 -0.12,-0.13 -0.12,-0.22l0 -6.58c0,-0.14 0.11,-0.25 0.25,-0.25l1.67 0c0.14,0 0.25,0.11 0.25,0.25l0 3.83c0,0.68 -0.2,1.33 -0.58,1.89 -0.31,0.46 -0.73,0.83 -1.22,1.09 -0.04,0.02 -0.08,0.03 -0.12,0.03zm-19.4 -8.37l0.01 5.5c0,0.99 0.32,1.94 0.93,2.73 0.57,0.74 1.37,1.3 2.26,1.58 0.1,0.03 0.17,0.12 0.18,0.22 0.15,1.58 0.76,3.07 1.78,4.3 1.03,1.24 2.39,2.13 3.92,2.57 0.09,0.03 0.16,0.1 0.18,0.19 0.19,0.91 0.18,1.84 -0.05,2.86 -0.21,0.91 -0.58,1.88 -1.13,2.97l6.33 -0.02c-0.56,-1.09 -0.92,-2.02 -1.12,-2.9 -0.23,-1.03 -0.24,-1.98 -0.04,-2.91 0.02,-0.09 0.09,-0.17 0.18,-0.19 1.53,-0.44 2.89,-1.33 3.92,-2.57 1.02,-1.23 1.64,-2.72 1.78,-4.3 0.01,-0.1 0.08,-0.19 0.18,-0.22 0.89,-0.27 1.69,-0.83 2.26,-1.58 0.61,-0.79 0.93,-1.74 0.93,-2.73l0 -5.52 -3.08 0.01c-0.14,0 -0.25,-0.11 -0.25,-0.25l0 -2.34 -15.82 0.02 0.02 2.33c0,0.14 -0.11,0.25 -0.25,0.25l-3.09 0zm14.44 23.41l-6.4 0c-0.27,0 -0.48,-0.22 -0.48,-0.48 0,-0.09 0.03,-0.18 0.07,-0.26 0.52,-1.03 0.88,-1.96 1.08,-2.83 0.2,-0.89 0.22,-1.71 0.08,-2.5 -1.57,-0.48 -2.96,-1.41 -4.02,-2.69 -1.05,-1.27 -1.7,-2.79 -1.88,-4.41 -0.92,-0.32 -1.75,-0.92 -2.35,-1.7 -0.67,-0.88 -1.03,-1.93 -1.03,-3.04l0 -5.53c0,-0.26 0.22,-0.48 0.48,-0.48l2.85 0 0 -2.1c0,-0.26 0.22,-0.48 0.48,-0.48l15.85 0c0.27,0 0.48,0.22 0.48,0.48l0 2.1 2.85 0c0.26,0 0.48,0.21 0.48,0.48l0 5.53c0,1.11 -0.36,2.16 -1.03,3.04 -0.6,0.78 -1.43,1.38 -2.35,1.7 -0.18,1.62 -0.83,3.14 -1.88,4.41 -1.06,1.28 -2.45,2.21 -4.02,2.69 -0.15,0.82 -0.13,1.66 0.07,2.55 0.19,0.85 0.54,1.74 1.09,2.81 0.06,0.11 0.07,0.24 0.03,0.37 -0.04,0.12 -0.12,0.22 -0.23,0.28 -0.08,0.04 -0.15,0.05 -0.22,0.05z"/>
  <path class="fil0" d="M5.62 29.05l12.23 0 0 -2.55 -12.23 0 0 2.55zm12.48 0.51l-12.73 0c-0.14,0 -0.25,-0.11 -0.25,-0.25l0 -3.06c0,-0.14 0.11,-0.25 0.25,-0.25l12.73 0c0.14,0 0.25,0.11 0.25,0.25l0 3.06c0,0.14 -0.11,0.25 -0.25,0.25z"/>
  <path class="fil0" d="M7.05 30.26l9.37 0 0 -0.71 -9.37 0 0 0.71zm9.63 0.51l-9.88 0c-0.14,0 -0.25,-0.11 -0.25,-0.25l0 -1.21c0,-0.14 0.11,-0.25 0.25,-0.25l9.88 0c0.14,0 0.25,0.11 0.25,0.25l0 1.21c0,0.14 -0.11,0.25 -0.25,0.25z"/>
  <path class="fil0" d="M11.74 12.35c0.05,0 0.1,0.02 0.15,0.05l2.07 1.51 -0.81 -2.43c-0.03,-0.11 0,-0.22 0.09,-0.28l2.06 -1.49 -2.54 0.01 -0 0c-0.11,0 -0.21,-0.07 -0.24,-0.18l-0.78 -2.42 -0.78 2.42c-0.03,0.1 -0.13,0.19 -0.24,0.18l-2.55 -0.01 2.06 1.49c0.09,0.06 0.13,0.18 0.09,0.28l-0.79 2.43 2.06 -1.51c0.04,-0.03 0.1,-0.05 0.15,-0.05zm2.25 2.1c-0.11,0 -0.22,-0.04 -0.31,-0.11l-1.95 -1.42 -1.98 1.44c-0.21,0.15 -0.52,0.1 -0.67,-0.11 -0.09,-0.12 -0.11,-0.28 -0.06,-0.43l0.76 -2.32 -1.98 -1.43c-0.17,-0.12 -0.24,-0.34 -0.17,-0.54 0.07,-0.2 0.24,-0.33 0.45,-0.33l2.44 0.01 0.75 -2.32c0.06,-0.2 0.24,-0.33 0.45,-0.33 0.21,0 0.39,0.13 0.46,0.33l0.75 2.33 2.44 -0.01c0.21,0 0.39,0.13 0.46,0.33 0.07,0.2 -0,0.41 -0.17,0.53l-1.98 1.43 0.76 2.32c0.05,0.15 0.03,0.3 -0.06,0.43 -0.09,0.13 -0.24,0.2 -0.39,0.2z"/>
 </g>
</svg>
